<svg width="42" height="42" viewBox="0 0 42 42" fill="none" xmlns="http://www.w3.org/2000/svg">
<path fill-rule="evenodd" clip-rule="evenodd" d="M37.8473 22.0181C36.5739 16.72 36.6573 11.6179 36.5047 6.244C36.475 5.1945 37.2807 4.32197 38.3032 4.29036C39.3264 4.25875 40.1803 5.08699 40.2105 6.13649C40.3551 11.2323 40.2383 16.0814 41.4468 21.114C41.6915 22.1319 41.0829 23.1624 40.0894 23.409C39.0965 23.6619 38.0913 23.036 37.8473 22.0181Z" fill="#3CB4A5"/>
<path fill-rule="evenodd" clip-rule="evenodd" d="M27.028 32.2855C18.3894 24.2056 10.2499 13.8118 4.56085 3.3168C4.06473 2.40007 4.38788 1.24304 5.28251 0.737259C6.17714 0.231476 7.30654 0.560261 7.80267 1.47699C13.3039 11.6243 21.1758 21.6767 29.529 29.4848C30.284 30.1929 30.3365 31.3941 29.6464 32.1654C28.9563 32.9367 27.783 32.9936 27.028 32.2855Z" fill="#3CB4A5"/>
<path fill-rule="evenodd" clip-rule="evenodd" d="M24.8396 41.1115C16.9387 42.4455 8.79494 40.1695 1.61069 36.9514C0.673427 36.5278 0.245869 35.4088 0.655497 34.4541C1.06574 33.4932 2.15995 33.0569 3.09722 33.4742C9.64015 36.4077 17.04 38.5826 24.236 37.3687C25.2456 37.198 26.2001 37.8998 26.3663 38.9303C26.5331 39.9608 25.8486 40.9408 24.8396 41.1115Z" fill="#3CB4A5"/>
</svg>
