<svg width="38" height="42" viewBox="0 0 38 42" fill="none" xmlns="http://www.w3.org/2000/svg">
<path fill-rule="evenodd" clip-rule="evenodd" d="M12.7143 39.1942C9.08582 38.167 5.28696 37.6489 1.60181 37.1741C0.80809 37.0746 0.0711713 37.63 0.0144767 38.4124C-0.0989123 39.1954 0.468365 39.9115 1.20539 40.011C4.77715 40.468 8.46196 40.957 11.9203 41.9459C12.6574 42.1604 13.4514 41.7188 13.6782 40.9593C13.905 40.2003 13.4513 39.4093 12.7143 39.1942Z" fill="#20A392"/>
<path fill-rule="evenodd" clip-rule="evenodd" d="M23.7125 24.6307C17.873 18.619 11.2964 13.3811 5.57029 7.20811C5.06004 6.63158 4.15293 6.6007 3.58598 7.1389C3.01904 7.67767 2.96257 8.58363 3.52951 9.16016C9.25566 15.3509 15.8322 20.6059 21.6718 26.6354C22.2387 27.1982 23.1456 27.2062 23.7125 26.6526C24.2228 26.0995 24.2795 25.1935 23.7125 24.6307Z" fill="#20A392"/>
<path fill-rule="evenodd" clip-rule="evenodd" d="M34.6554 1.50751C34.8254 4.94834 34.9952 8.38917 35.1653 11.8306C35.1653 12.6187 35.8459 13.2273 36.6397 13.1889C37.4334 13.1501 38 12.4792 38 11.6904C37.8299 8.2439 37.6602 4.79792 37.4901 1.35194C37.4334 0.5638 36.7529 -0.0407473 35.9592 0.00214871C35.2222 0.0450447 34.5987 0.719943 34.6554 1.50751Z" fill="#20A392"/>
</svg>
