<svg width="50" height="50" viewBox="0 0 50 50" fill="none" xmlns="http://www.w3.org/2000/svg">
<g clip-path="url(#clip0_8_1424)">
<path d="M10.8333 22.5H12.4999V24.1667H10.8333V22.5Z" fill="#3BB3A4"/>
<path d="M47.5 35C47.2156 35.0029 46.9336 35.055 46.6667 35.1534V35C46.665 33.4387 45.933 31.9682 44.6883 31.0258C47.935 29.5968 49.7363 26.0889 49.0059 22.6176C48.276 19.1467 45.2136 16.6618 41.6667 16.6618C38.1197 16.6618 35.0574 19.1467 34.3274 22.6176C33.597 26.0889 35.3984 29.5968 38.645 31.0258C37.4003 31.9682 36.6683 33.4387 36.6667 35V35.8334H31.9491C30.4195 35.8334 29.0861 36.8746 28.715 38.3586L28.5132 39.1667H21.4868L21.285 38.3586C20.9139 36.8746 19.5805 35.8334 18.0509 35.8334H13.3333V35C13.3317 33.4387 12.5997 31.9682 11.355 31.0258C14.6016 29.5968 16.403 26.0889 15.6726 22.6176C14.9426 19.1467 11.8803 16.6618 8.33333 16.6618C4.78638 16.6618 1.72404 19.1467 0.994059 22.6176C0.263672 26.0889 2.06502 29.5968 5.31169 31.0258C4.06698 31.9682 3.33496 33.4387 3.33333 35V35.1534C3.06641 35.055 2.78442 35.0029 2.5 35C1.11938 35 0 36.1194 0 37.5V48.3334C0 48.7936 0.373128 49.1667 0.833333 49.1667H12.5C12.9602 49.1667 13.3333 48.7936 13.3333 48.3334V44.1667H22.5V48.3334C22.5 48.7936 22.8731 49.1667 23.3333 49.1667H26.6667C27.1269 49.1667 27.5 48.7936 27.5 48.3334V44.1667H36.6667V48.3334C36.6667 48.7936 37.0398 49.1667 37.5 49.1667H49.1667C49.6269 49.1667 50 48.7936 50 48.3334V37.5C50 36.1194 48.8806 35 47.5 35V35ZM35.8333 24.1667C35.8333 20.9453 38.4448 18.3334 41.6667 18.3334C44.8885 18.3334 47.5 20.9453 47.5 24.1667C47.5 27.3885 44.8885 30 41.6667 30C38.4465 29.9964 35.837 27.3869 35.8333 24.1667ZM30.3333 38.7626C30.5188 38.0213 31.1849 37.5008 31.9491 37.5H37.5C37.7625 37.5 38.0094 37.3767 38.1665 37.1668L40.1668 34.5003C40.3475 34.2806 40.6254 34.1647 40.9086 34.1903C41.1918 34.2159 41.4445 34.3795 41.5833 34.6277C41.7269 34.9101 41.6943 35.2499 41.4998 35.5001L38.75 39.1667H30.2307L30.3333 38.7626ZM18.0509 37.5C18.8151 37.5008 19.4812 38.0213 19.6667 38.7626L19.7677 39.1667H11.25L8.50016 35.5001C8.30526 35.2503 8.2727 34.9101 8.41675 34.6277C8.5555 34.3795 8.80819 34.2159 9.09139 34.1903C9.37419 34.1647 9.6521 34.2802 9.83317 34.4995L11.8335 37.166C11.9906 37.3759 12.2375 37.4992 12.5 37.4992L18.0509 37.5ZM2.5 24.1667C2.5 20.9453 5.11149 18.3334 8.33333 18.3334C11.5552 18.3334 14.1667 20.9453 14.1667 24.1667C14.1667 27.3885 11.5552 30 8.33333 30C5.11312 29.9964 2.50366 27.3869 2.5 24.1667ZM1.66667 37.5C1.66667 37.0398 2.03979 36.6667 2.5 36.6667C2.96021 36.6667 3.33333 37.0398 3.33333 37.5V47.5H1.66667V37.5ZM5 44.1667H6.66667V47.5H5V44.1667ZM11.6667 47.5H8.33333V44.1667H9.16667C9.62687 44.1667 10 43.7936 10 43.3334C10 42.8731 9.62687 42.5 9.16667 42.5H5V35C4.99552 33.3777 6.16292 31.9885 7.76204 31.7139C9.36157 31.4392 10.9253 32.3588 11.4624 33.89L11.1666 33.5002C10.6466 32.8072 9.80509 32.4329 8.94206 32.5106C8.07943 32.5887 7.31812 33.1075 6.93075 33.8827C6.50391 34.7286 6.59546 35.7438 7.16675 36.5003L10.1668 40.5001C10.3239 40.7101 10.5709 40.8334 10.8333 40.8334H11.6667V47.5ZM13.3333 40.8334H36.6667V42.5H13.3333V40.8334ZM25.8333 47.5H24.1667V44.1667H25.8333V47.5ZM38.3333 40.8334H39.1667C39.4291 40.8334 39.6761 40.7101 39.8332 40.5001L42.8333 36.5003C43.6617 35.3955 43.4379 33.8286 42.3332 33.0001C41.2288 32.1717 39.6619 32.3954 38.8334 33.5002L38.54 33.8908C39.0796 32.3637 40.6413 31.4478 42.2375 31.722C43.8342 31.9959 45.0008 33.3806 45 35V42.5H40.8333C40.3731 42.5 40 42.8731 40 43.3334C40 43.7936 40.3731 44.1667 40.8333 44.1667H41.6667V47.5H38.3333V40.8334ZM43.3333 47.5V44.1667H45V47.5H43.3333ZM48.3333 47.5H46.6667V37.5C46.6667 37.0398 47.0398 36.6667 47.5 36.6667C47.9602 36.6667 48.3333 37.0398 48.3333 37.5V47.5Z" fill="#3BB3A4"/>
<path d="M37.5 22.5H39.1667V24.1667H37.5V22.5Z" fill="#3BB3A4"/>
<path d="M9.16675 7.08331C9.16675 6.39321 8.60726 5.83331 7.91675 5.83331C7.22624 5.83331 6.66675 6.39321 6.66675 7.08331C6.66675 7.77382 7.22624 8.33331 7.91675 8.33331C8.60726 8.33331 9.16675 7.77382 9.16675 7.08331ZM7.91675 7.49998C7.68644 7.49998 7.50008 7.31362 7.50008 7.08331C7.50008 6.85341 7.68644 6.66665 7.91675 6.66665C8.14705 6.66665 8.33341 6.85341 8.33341 7.08331C8.33341 7.31362 8.14705 7.49998 7.91675 7.49998Z" fill="#3BB3A4"/>
<path d="M12.0833 8.33331C12.7738 8.33331 13.3333 7.77382 13.3333 7.08331C13.3333 6.39321 12.7738 5.83331 12.0833 5.83331C11.3927 5.83331 10.8333 6.39321 10.8333 7.08331C10.8333 7.77382 11.3927 8.33331 12.0833 8.33331ZM12.0833 6.66665C12.3136 6.66665 12.4999 6.85341 12.4999 7.08331C12.4999 7.31362 12.3136 7.49998 12.0833 7.49998C11.8529 7.49998 11.6666 7.31362 11.6666 7.08331C11.6666 6.85341 11.8529 6.66665 12.0833 6.66665Z" fill="#3BB3A4"/>
<path d="M16.25 8.33331C16.9405 8.33331 17.5 7.77382 17.5 7.08331C17.5 6.39321 16.9405 5.83331 16.25 5.83331C15.5595 5.83331 15 6.39321 15 7.08331C15 7.77382 15.5595 8.33331 16.25 8.33331ZM16.25 6.66665C16.4803 6.66665 16.6667 6.85341 16.6667 7.08331C16.6667 7.31362 16.4803 7.49998 16.25 7.49998C16.0197 7.49998 15.8333 7.31362 15.8333 7.08331C15.8333 6.85341 16.0197 6.66665 16.25 6.66665Z" fill="#3BB3A4"/>
<path d="M7.97233 14.917C8.26123 15.0558 8.60384 15.0167 8.85408 14.8169L12.7925 11.6667H17.4999C19.3407 11.6667 20.8333 10.1746 20.8333 8.33334V5.83334C20.8333 3.99251 19.3407 2.5 17.4999 2.5H6.66658C4.82576 2.5 3.33325 3.99251 3.33325 5.83334V8.33334C3.33325 10.1746 4.82576 11.6667 6.66658 11.6667H7.49992V14.1667C7.50033 14.4869 7.68384 14.7783 7.97233 14.917ZM6.66658 10C5.74617 10 4.99992 9.25416 4.99992 8.33334V5.83334C4.99992 4.91293 5.74617 4.16667 6.66658 4.16667H17.4999C18.4203 4.16667 19.1666 4.91293 19.1666 5.83334V8.33334C19.1666 9.25416 18.4203 10 17.4999 10H12.4999C12.3107 10 12.1268 10.0643 11.9791 10.1827L9.16658 12.4325V10.8333C9.16658 10.3731 8.79346 10 8.33325 10H6.66658Z" fill="#3BB3A4"/>
<path d="M36.9107 8.57746C36.315 9.17154 35.3515 9.17154 34.7558 8.57746C34.4286 8.26171 33.909 8.26619 33.5876 8.58764C33.2661 8.90909 33.2616 9.42911 33.5774 9.75585C34.8246 10.9993 36.842 10.9993 38.0891 9.75585C38.4049 9.42911 38.4004 8.90909 38.0789 8.58764C37.7575 8.26619 37.2379 8.26171 36.9107 8.57746V8.57746Z" fill="#3BB3A4"/>
<path d="M33.8501 7.43365C34.1601 7.5663 34.5198 7.49713 34.7583 7.25869C34.9971 7.01984 35.0663 6.66013 34.9332 6.35008C34.893 6.24794 34.8336 6.15476 34.7583 6.07501C34.4242 5.76658 33.9091 5.76658 33.575 6.07501C33.4997 6.15476 33.4403 6.24794 33.4 6.35008C33.267 6.66013 33.3365 7.01984 33.575 7.25828C33.656 7.33193 33.7492 7.39134 33.8501 7.43365Z" fill="#3BB3A4"/>
<path d="M38.0915 6.07501C37.8942 5.88092 37.6134 5.79669 37.3416 5.84999C37.2863 5.85772 37.233 5.87481 37.1833 5.90004C37.13 5.91835 37.0796 5.94358 37.0332 5.97532L36.9082 6.07501C36.833 6.15476 36.7736 6.24794 36.7333 6.35007C36.6002 6.66013 36.6698 7.01983 36.9082 7.25828C36.9892 7.33193 37.0824 7.39133 37.1833 7.43365C37.3851 7.52236 37.6146 7.52236 37.8165 7.43365C37.9174 7.39133 38.0106 7.33193 38.0915 7.25828C38.33 7.01983 38.3996 6.66013 38.2665 6.35007C38.2262 6.24794 38.1668 6.15476 38.0915 6.07501V6.07501Z" fill="#3BB3A4"/>
<path d="M35.8334 0.833333C33.2236 0.830077 30.8518 2.34986 29.7641 4.7225C28.6769 7.09555 29.074 9.88446 30.7806 11.8592C32.4871 13.8338 35.1889 14.6314 37.6942 13.8994L41.4377 14.9687C41.5122 14.9894 41.5895 15 41.6668 15C42.127 15 42.5001 14.6269 42.5001 14.1667V6.66668C42.5001 6.63006 42.4977 6.59343 42.4928 6.55681C42.0127 3.2544 39.1704 0.811767 35.8334 0.833333V0.833333ZM40.8335 13.0628L37.9168 12.2294C37.7548 12.1835 37.5831 12.1875 37.4236 12.2408C35.4347 12.8768 33.2606 12.2062 31.9748 10.5607C30.6894 8.91562 30.5649 6.64389 31.6627 4.86776C32.7605 3.09204 34.8483 2.1875 36.8946 2.60173C38.941 3.01595 40.5128 4.66106 40.8335 6.72446V13.0628Z" fill="#3BB3A4"/>
</g>
<defs>
<clipPath id="clip0_8_1424">
<rect width="50" height="50" fill="white"/>
</clipPath>
</defs>
</svg>
