<svg width="50" height="50" viewBox="0 0 50 50" fill="none" xmlns="http://www.w3.org/2000/svg">
<g clip-path="url(#clip0_8_1084)">
<path d="M17.5073 10.8259C10.6038 10.822 5.00406 16.4151 5 23.3186C4.99709 28.2916 7.94229 32.7932 12.5 34.7824V40.8332C12.5 42.214 13.6193 43.3332 15 43.3332V44.1666C15 45.5473 16.1193 46.6666 17.5 46.6666C18.8807 46.6666 20 45.5473 20 44.1666V43.3332C21.3807 43.3332 22.5 42.214 22.5 40.8332V34.7824C27.0504 32.7924 29.9934 28.2998 30 23.3332C30.0041 16.4297 24.4108 10.83 17.5073 10.8259ZM18.3333 44.1666C18.3333 44.6268 17.9602 44.9999 17.5 44.9999C17.0398 44.9999 16.6667 44.6268 16.6667 44.1666V43.3332H18.3333V44.1666ZM20 41.6666H15C14.5398 41.6666 14.1667 41.2934 14.1667 40.8332H20.8333C20.8333 41.2934 20.4602 41.6666 20 41.6666ZM20.8333 39.1666H14.1667V38.3332H20.8333V39.1666ZM20.8333 36.6666H14.1667V35.3682C16.3456 35.9882 18.6544 35.9882 20.8333 35.3682V36.6666ZM20.4242 33.7541L21.6583 25.1182L20.0083 24.8816L18.6925 34.0974C17.9002 34.1896 17.0998 34.1896 16.3075 34.0974L14.9917 24.8816L13.3417 25.1182L14.5758 33.7541C9.9049 32.4411 6.67469 28.1851 6.66667 23.3332C6.66094 17.3501 11.5066 12.4952 17.4896 12.4895C23.4727 12.4837 28.3276 17.3294 28.3333 23.3124C28.338 28.1732 25.1045 32.442 20.4242 33.7541Z" fill="#3CB4A5"/>
<path d="M49.7558 14.4108L38.9225 3.5775C38.7663 3.42125 38.5544 3.33333 38.3333 3.33333V0.833333C38.3333 0.373125 37.9602 0 37.5 0H9.16667V0.0075C8.94656 0.004375 8.73427 0.0895833 8.5775 0.244167L0.244167 8.5775C0.090625 8.735 0.00552083 8.94677 0.0075 9.16667H0V49.1667C0 49.6269 0.373125 50 0.833333 50H37.5C37.9602 50 38.3333 49.6269 38.3333 49.1667V22.0117L40.2442 23.9225C40.5696 24.2478 41.0971 24.2478 41.4225 23.9225L49.7558 15.5892C50.0811 15.2638 50.0811 14.7362 49.7558 14.4108ZM35 1.66667H36.6667V3.33333H35V1.66667ZM8.33333 2.845V8.33333H2.845L8.33333 2.845ZM33.3333 48.3333H1.66667V10H9.16667C9.62687 10 10 9.62687 10 9.16667V1.66667H33.3333V3.33333H30C29.5398 3.33333 29.1667 3.70646 29.1667 4.16667V12.5C29.1667 12.721 29.2546 12.9329 29.4108 13.0892L33.3333 17.0117V48.3333ZM36.6667 48.3333H35V18.6783L36.6667 20.345V48.3333ZM40.8333 22.155L30.8333 12.155V5H37.9883L47.9883 15L40.8333 22.155Z" fill="#3CB4A5"/>
<path d="M21.2059 20.925C20.9715 20.8078 20.6954 20.8078 20.4609 20.925L17.5001 22.4017L14.5393 20.9208C14.3048 20.8036 14.0287 20.8036 13.7943 20.9208L10.4609 22.5875L11.2059 24.0792L14.1668 22.5983L17.1276 24.0833C17.3621 24.2005 17.6381 24.2005 17.8726 24.0833L20.8334 22.5983L23.7943 24.0833L24.5393 22.5917L21.2059 20.925Z" fill="#3CB4A5"/>
<path d="M35 6.66666C33.6193 6.66666 32.5 7.78593 32.5 9.16666C32.5 10.5474 33.6193 11.6667 35 11.6667C36.3807 11.6667 37.5 10.5474 37.5 9.16666C37.5 7.78593 36.3807 6.66666 35 6.66666ZM35 9.99999C34.5398 9.99999 34.1667 9.62686 34.1667 9.16666C34.1667 8.70645 34.5398 8.33332 35 8.33332C35.4602 8.33332 35.8333 8.70645 35.8333 9.16666C35.8333 9.62686 35.4602 9.99999 35 9.99999Z" fill="#3CB4A5"/>
<path d="M27.4999 8.33334H20.8333V10H27.4999V8.33334Z" fill="#3CB4A5"/>
<path d="M27.5 5H25V6.66667H27.5V5Z" fill="#3CB4A5"/>
<path d="M23.3334 5H16.6667V6.66667H23.3334V5Z" fill="#3CB4A5"/>
<path d="M43.5761 13.5781L39.4102 17.7441L40.5887 18.9226L44.7546 14.7566L43.5761 13.5781Z" fill="#3CB4A5"/>
<path d="M49.8075 28.6542L49.8175 28.6459L46.4841 24.4792C46.1709 24.1198 45.6255 24.0824 45.2661 24.3957C45.2363 24.4216 45.2084 24.4496 45.1826 24.4792L41.8492 28.6459L41.8592 28.6542C41.738 28.7979 41.6701 28.9788 41.6667 29.1667V48.3334C41.6667 49.2539 42.4129 50.0001 43.3334 50.0001H48.3334C49.2539 50.0001 50.0001 49.2539 50.0001 48.3334V29.1667C49.9966 28.9788 49.9287 28.7978 49.8075 28.6542ZM45.8333 26.3334L47.4333 28.3334H44.2333L45.8333 26.3334ZM48.3333 48.3334H43.3333V30.0001H48.3333V48.3334Z" fill="#3CB4A5"/>
<path d="M31.6667 35.8333H25V37.5H31.6667V35.8333Z" fill="#3CB4A5"/>
<path d="M31.6667 39.1667H25V40.8333H31.6667V39.1667Z" fill="#3CB4A5"/>
<path d="M31.6667 42.5H25V44.1667H31.6667V42.5Z" fill="#3CB4A5"/>
</g>
<defs>
<clipPath id="clip0_8_1084">
<rect width="50" height="50" fill="white"/>
</clipPath>
</defs>
</svg>
