<svg width="50" height="50" viewBox="0 0 50 50" fill="none" xmlns="http://www.w3.org/2000/svg">
<path d="M28.9217 10.1392C30.0925 9.07167 30.8333 7.53917 30.8333 5.83333C30.8333 2.6175 28.2167 0 25 0C21.7833 0 19.1667 2.6175 19.1667 5.83333C19.1667 7.53917 19.9075 9.07167 21.0783 10.1392C17.6208 10.8058 15 13.8508 15 17.5V20.8333C15 21.2942 15.3733 21.6667 15.8333 21.6667H34.1667C34.6267 21.6667 35 21.2942 35 20.8333V17.5C35 13.8508 32.3792 10.8058 28.9217 10.1392ZM20.8333 5.83333C20.8333 3.53583 22.7025 1.66667 25 1.66667C27.2975 1.66667 29.1667 3.53583 29.1667 5.83333C29.1667 8.13083 27.2975 10 25 10C22.7025 10 20.8333 8.13083 20.8333 5.83333ZM33.3333 20H16.6667V17.5C16.6667 14.2842 19.2833 11.6667 22.5 11.6667H27.5C30.7167 11.6667 33.3333 14.2842 33.3333 17.5V20Z" fill="#3CB4A5"/>
<path d="M13.9217 38.4725C15.0925 37.405 15.8333 35.8725 15.8333 34.1666C15.8333 30.9508 13.2167 28.3333 10 28.3333C6.78333 28.3333 4.16667 30.9508 4.16667 34.1666C4.16667 35.8725 4.9075 37.405 6.07833 38.4725C2.62083 39.1391 0 42.1841 0 45.8333V49.1666C0 49.6275 0.373333 50 0.833333 50H19.1667C19.6267 50 20 49.6275 20 49.1666V45.8333C20 42.1841 17.3792 39.1391 13.9217 38.4725ZM5.83333 34.1666C5.83333 31.8691 7.7025 30 10 30C12.2975 30 14.1667 31.8691 14.1667 34.1666C14.1667 36.4641 12.2975 38.3333 10 38.3333C7.7025 38.3333 5.83333 36.4641 5.83333 34.1666ZM18.3333 48.3333H1.66667V45.8333C1.66667 42.6175 4.28333 40 7.5 40H12.5C15.7167 40 18.3333 42.6175 18.3333 45.8333V48.3333Z" fill="#3CB4A5"/>
<path d="M43.9217 38.4725C45.0925 37.405 45.8333 35.8725 45.8333 34.1666C45.8333 30.9508 43.2167 28.3333 40 28.3333C36.7833 28.3333 34.1667 30.9508 34.1667 34.1666C34.1667 35.8725 34.9075 37.405 36.0783 38.4725C32.6208 39.1391 30 42.1841 30 45.8333V49.1666C30 49.6275 30.3733 50 30.8333 50H49.1667C49.6267 50 50 49.6275 50 49.1666V45.8333C50 42.1841 47.3792 39.1391 43.9217 38.4725ZM35.8333 34.1666C35.8333 31.8691 37.7025 30 40 30C42.2975 30 44.1667 31.8691 44.1667 34.1666C44.1667 36.4641 42.2975 38.3333 40 38.3333C37.7025 38.3333 35.8333 36.4641 35.8333 34.1666ZM48.3333 48.3333H31.6667V45.8333C31.6667 42.6175 34.2833 40 37.5 40H42.5C45.7167 40 48.3333 42.6175 48.3333 45.8333V48.3333Z" fill="#3CB4A5"/>
<path d="M5.01583 26.6399L3.35083 26.7049C3.37333 27.2791 3.41916 27.8607 3.4875 28.4324L5.1425 28.2341C5.07916 27.7066 5.03666 27.1699 5.01583 26.6399Z" fill="#3CB4A5"/>
<path d="M3.48666 23.2475C3.41916 23.8158 3.3725 24.3967 3.35083 24.9742L5.01583 25.0392C5.03666 24.5058 5.07916 23.97 5.14166 23.4442L3.48666 23.2475Z" fill="#3CB4A5"/>
<path d="M11.8659 8.59845C11.41 8.94595 10.9609 9.31762 10.53 9.70428L11.6442 10.9443C12.0409 10.5876 12.455 10.2443 12.8759 9.92428L11.8659 8.59845Z" fill="#3CB4A5"/>
<path d="M5.38911 16.6083C5.14411 17.1292 4.91744 17.6658 4.71411 18.2067L6.27411 18.7925C6.46161 18.2942 6.67078 17.7992 6.89661 17.32L5.38911 16.6083Z" fill="#3CB4A5"/>
<path d="M4.16928 19.8525C4.01094 20.4033 3.87344 20.9708 3.75928 21.5358L5.39344 21.865C5.49844 21.3441 5.62511 20.8208 5.77178 20.3116L4.16928 19.8525Z" fill="#3CB4A5"/>
<path d="M9.28923 10.9141C8.89006 11.3341 8.50673 11.7716 8.14673 12.2157L9.44256 13.2641C9.77423 12.8541 10.1292 12.4491 10.4976 12.0616L9.28923 10.9141Z" fill="#3CB4A5"/>
<path d="M14.7775 6.72583C14.2733 6.995 13.7708 7.29083 13.2825 7.605L14.1858 9.00666C14.6358 8.71583 15.0991 8.44333 15.5625 8.19583L14.7775 6.72583Z" fill="#3CB4A5"/>
<path d="M7.11161 13.6042C6.78578 14.08 6.47577 14.5734 6.18994 15.0725L7.63577 15.9009C7.89911 15.4409 8.18577 14.985 8.48661 14.5467L7.11161 13.6042Z" fill="#3CB4A5"/>
<path d="M21.0516 45.4434L20.7224 47.0775C21.2832 47.1909 21.8599 47.2817 22.4357 47.3492L22.6291 45.6942C22.0999 45.6317 21.5682 45.5475 21.0516 45.4434Z" fill="#3CB4A5"/>
<path d="M29.0009 45.4333C28.4834 45.5383 27.9526 45.6242 27.4209 45.6892L27.6217 47.3442C28.1967 47.2742 28.7717 47.1808 29.3317 47.0675L29.0009 45.4333Z" fill="#3CB4A5"/>
<path d="M25.8274 45.8167C25.2949 45.8375 24.7566 45.84 24.2275 45.8192L24.1616 47.4842C24.4391 47.4958 24.7191 47.5008 25.0024 47.5008C25.3008 47.4992 25.5983 47.4933 25.8941 47.4817L25.8274 45.8167Z" fill="#3CB4A5"/>
<path d="M39.4732 9.71094L38.3599 10.9509C38.7565 11.3076 39.1415 11.6826 39.5057 12.0659L40.7157 10.9201C40.3207 10.5034 39.9032 10.0968 39.4732 9.71094Z" fill="#3CB4A5"/>
<path d="M41.8566 12.2209L40.5608 13.2693C40.8933 13.6801 41.215 14.1126 41.5166 14.5526L42.8908 13.6101C42.5641 13.1343 42.2166 12.6668 41.8566 12.2209Z" fill="#3CB4A5"/>
<path d="M46.6491 24.9766L44.9841 25.0416C44.995 25.3041 45 25.5691 45 25.8332C45 26.1041 44.995 26.3732 44.9841 26.6424L46.6491 26.7074C46.6608 26.4174 46.6666 26.1257 46.6666 25.8316C46.6666 25.5457 46.6608 25.2599 46.6491 24.9766Z" fill="#3CB4A5"/>
<path d="M43.8134 15.0767L42.3667 15.9058C42.6309 16.3667 42.8792 16.8442 43.1059 17.3242L44.6134 16.6125C44.3684 16.0925 44.0992 15.5758 43.8134 15.0767Z" fill="#3CB4A5"/>
<path d="M45.2875 18.21L43.7275 18.7967C43.9142 19.2934 44.0825 19.8042 44.2292 20.3142L45.8317 19.855C45.6734 19.3017 45.49 18.7484 45.2875 18.21Z" fill="#3CB4A5"/>
<path d="M46.24 21.5391L44.6067 21.8674C44.7117 22.3891 44.7967 22.9207 44.8584 23.4474L46.5134 23.2507C46.4459 22.6807 46.3542 22.1049 46.24 21.5391Z" fill="#3CB4A5"/>
<path d="M36.7226 7.60822L35.8201 9.00988C36.2651 9.29655 36.7051 9.60572 37.1292 9.92988L38.1409 8.60405C37.6817 8.25322 37.2051 7.91905 36.7226 7.60822Z" fill="#3CB4A5"/>
<path d="M33.6699 5.97168L33.0024 7.49835C33.4883 7.71085 33.9716 7.94585 34.4408 8.19751L35.2291 6.72918C34.7216 6.45585 34.1966 6.20085 33.6699 5.97168Z" fill="#3CB4A5"/>
</svg>
