<svg width="50" height="50" viewBox="0 0 50 50" fill="none" xmlns="http://www.w3.org/2000/svg">
<g clip-path="url(#clip0_8_1129)">
<path d="M25.1774 31.813C21.4378 31.813 18.3955 28.7493 18.3955 24.984C18.3955 21.2183 21.4378 18.1545 25.1774 18.1545C28.9169 18.1545 31.9592 21.2183 31.9592 24.984C31.9592 28.7493 28.9169 31.813 25.1774 31.813ZM25.1774 19.7674C22.327 19.7674 20.0084 22.1074 20.0084 24.984C20.0084 27.8602 22.327 30.2001 25.1774 30.2001C28.0278 30.2001 30.3463 27.8602 30.3463 24.984C30.3463 22.1078 28.0278 19.7674 25.1774 19.7674Z" fill="#3CB4A5"/>
<path d="M27.2108 42.0601H23.1439C22.6983 42.0601 22.337 41.6992 22.337 41.2536V38.323C20.7374 37.9774 19.1971 37.3343 17.8193 36.4363L15.7669 38.504C15.4568 38.8165 14.9318 38.8165 14.6213 38.504L11.7459 35.6069C11.4338 35.2924 11.4338 34.7855 11.7459 34.471L13.8052 32.3964C12.9108 31.0057 12.2701 29.4508 11.9273 27.8363H9.02573C8.58016 27.8363 8.21887 27.4754 8.21887 27.0299V22.9323C8.21887 22.4871 8.58016 22.1258 9.02573 22.1258H11.9273C12.2705 20.5113 12.9108 18.9565 13.8052 17.5657L11.7459 15.4911C11.4338 15.1766 11.4338 14.6698 11.7459 14.3553L14.6213 11.4581C14.9241 11.1528 15.4636 11.1528 15.7669 11.4581L17.8193 13.5258C19.1971 12.6278 20.7374 11.9847 22.337 11.6391V8.70849C22.337 8.26333 22.6983 7.90204 23.1439 7.90204H27.2108C27.6564 7.90204 28.0177 8.26293 28.0177 8.70849V11.6391C29.6173 11.9847 31.1576 12.6278 32.5354 13.5258L34.5878 11.4581C34.8906 11.1528 35.4302 11.1528 35.7334 11.4581L38.6088 14.3553C38.9209 14.6698 38.9209 15.1766 38.6088 15.4911L36.5495 17.5657C37.4439 18.9565 38.0846 20.5113 38.4273 22.1258H41.3289C41.7745 22.1258 42.1358 22.4867 42.1358 22.9323V27.0295C42.1358 27.4746 41.7745 27.8359 41.3289 27.8359H38.4273C38.0842 29.4504 37.4439 31.0053 36.5495 32.396L38.6088 34.4706C38.9209 34.7851 38.9209 35.292 38.6088 35.6065L35.7334 38.5036C35.4306 38.8089 34.891 38.8089 34.5878 38.5036L32.5354 36.4359C31.1576 37.3339 29.6173 37.977 28.0177 38.3226V41.2532C28.0173 41.6988 27.6564 42.0601 27.2108 42.0601ZM23.9507 40.4472H26.4043V37.6549C26.4043 37.2593 26.6914 36.9218 27.0822 36.8589C28.9015 36.5649 30.6572 35.8315 32.158 34.7383C32.4797 34.5045 32.9249 34.5391 33.2056 34.8218L35.16 36.7911L36.8991 35.0387L34.9358 33.0605C34.6584 32.7811 34.6233 32.3424 34.8531 32.0226C35.9394 30.5089 36.6677 28.7383 36.96 26.9028C37.0221 26.5113 37.36 26.2234 37.7568 26.2234H40.5221V23.7387H37.7568C37.36 23.7387 37.0225 23.4504 36.96 23.0593C36.6681 21.2238 35.9394 19.4537 34.8531 17.9395C34.6237 17.6198 34.6584 17.1811 34.9358 16.9016L36.8991 14.9234L35.16 13.171L33.2056 15.1403C32.9249 15.4238 32.4797 15.4589 32.158 15.2238C30.6568 14.1303 28.9015 13.3972 27.0822 13.1032C26.6914 13.0399 26.4043 12.7028 26.4043 12.3073V9.51494H23.9507V12.3073C23.9507 12.7028 23.6636 13.0403 23.2729 13.1032C21.4535 13.3972 19.6979 14.1307 18.1971 15.2238C17.8753 15.4585 17.4306 15.4234 17.1495 15.1403L15.1951 13.171L13.456 14.9234L15.4193 16.9016C15.6967 17.1811 15.7318 17.6198 15.5019 17.9395C14.4156 19.4537 13.687 21.2238 13.3951 23.0593C13.333 23.4508 12.9951 23.7387 12.5983 23.7387H9.83298V26.2234H12.5983C12.9951 26.2234 13.3326 26.5117 13.3951 26.9028C13.6874 28.7387 14.4156 30.5089 15.5019 32.0226C15.7314 32.3424 15.6967 32.7811 15.4193 33.0605L13.456 35.0387L15.1951 36.7911L17.1495 34.8218C17.4306 34.5391 17.8757 34.5036 18.1971 34.7383C19.6983 35.8319 21.4535 36.5649 23.2729 36.8589C23.6636 36.9222 23.9507 37.2593 23.9507 37.6549V40.4472Z" fill="#3CB4A5"/>
<path d="M46.9358 8.56612C46.9269 7.53185 45.314 7.5379 45.3225 8.57903L45.3314 9.66935C40.4874 3.80847 32.731 0 25.2899 0C17.5931 0 10.4705 3.50282 5.74912 9.61088C5.11445 10.4327 6.38904 11.4193 7.02574 10.5972C11.4394 4.8875 18.0963 1.6129 25.2899 1.6129C32.5326 1.6129 40.0971 5.46572 44.5919 11.327H42.3604C41.3217 11.327 41.3197 12.9399 42.3604 12.9399H46.1576C46.5979 12.9399 46.9681 12.5673 46.9645 12.127L46.9358 8.56612Z" fill="#3CB4A5"/>
<path d="M50 24.7791C50 21.7162 49.4492 18.7258 48.3629 15.8916C47.9915 14.9218 46.4842 15.4968 46.8564 16.4686C47.8717 19.1182 48.3867 21.9141 48.3867 24.7791C48.3867 33.7843 42.2169 42.4299 33.4274 46.1456L34.0496 45.1779C34.6113 44.3045 33.2552 43.4315 32.6923 44.3061L30.7685 47.2988C30.506 47.7069 30.6742 48.2722 31.1169 48.4702L34.358 49.9234C35.3076 50.3492 35.9661 48.8766 35.0181 48.452L33.6072 47.8194C43.2149 43.9633 50 34.5726 50 24.7791Z" fill="#3CB4A5"/>
<path d="M26.2463 47.9258C25.9294 47.9387 25.6104 47.9451 25.2902 47.9451C12.5548 47.9451 2.19389 37.5528 2.19389 24.779C2.19389 22.5169 3.12776 19.6915 4.01768 17.306L4.72695 18.9016C5.14872 19.8492 6.62413 19.1976 6.20114 18.2463L4.69711 14.8637C4.51284 14.4488 3.99993 14.2665 3.59389 14.4726L0.428162 16.0843C-0.497241 16.5556 0.232597 17.9919 1.16042 17.5213L2.46284 16.8584C1.53945 19.3427 0.580178 22.2923 0.580178 24.779C0.580178 38.4423 11.6648 49.558 25.2898 49.558C25.6322 49.558 25.9729 49.5512 26.3116 49.5375C27.3491 49.4947 27.2874 47.8859 26.2463 47.9258C26.6971 47.9084 25.929 47.9391 26.2463 47.9258Z" fill="#3CB4A5"/>
</g>
<defs>
<clipPath id="clip0_8_1129">
<rect width="50" height="50" fill="white"/>
</clipPath>
</defs>
</svg>
