<svg width="50" height="50" viewBox="0 0 50 50" fill="none" xmlns="http://www.w3.org/2000/svg">
<path d="M43.243 23.0956C44.7072 22.0667 45.6767 20.3552 45.6767 18.426C45.6767 15.2701 43.1243 12.7176 39.9683 12.7176C36.8124 12.7176 34.26 15.2701 34.26 18.426C34.26 20.3552 35.2196 22.0667 36.6937 23.0956C35.4373 23.5309 34.2897 24.2036 33.3201 25.0742C31.9846 23.9365 30.4116 23.0659 28.6901 22.5514C30.7776 21.2851 32.1824 18.98 32.1824 16.3583C32.1824 12.3615 28.9474 9.12643 24.9505 9.12643C20.9537 9.12643 17.7186 12.3714 17.7186 16.3583C17.7186 18.98 19.1136 21.2851 21.2109 22.5514C19.5093 23.0659 17.9561 23.9266 16.6304 25.0445C15.6609 24.1937 14.533 23.5309 13.2964 23.1055C14.7606 22.0766 15.7301 20.3651 15.7301 18.4359C15.7301 15.28 13.1777 12.7275 10.0218 12.7275C6.86585 12.7275 4.31342 15.28 4.31342 18.4359C4.31342 20.3651 5.27305 22.0766 6.74713 23.1055C2.81955 24.4608 0 28.1905 0 32.5732V33.2262C0 33.2459 0.0197863 33.2657 0.0395726 33.2657H12.1389C12.0696 33.8099 12.0301 34.3738 12.0301 34.9377V35.6104C12.0301 38.519 14.3846 40.8736 17.2932 40.8736H32.6276C35.5362 40.8736 37.8908 38.519 37.8908 35.6104V34.9377C37.8908 34.3738 37.8512 33.8099 37.782 33.2657H49.9604C49.9802 33.2657 50 33.2459 50 33.2262V32.5732C49.9802 28.1806 47.1706 24.4509 43.243 23.0956ZM35.8429 18.4161C35.8429 16.1407 37.6929 14.2907 39.9683 14.2907C42.2438 14.2907 44.0938 16.1407 44.0938 18.4161C44.0938 20.6619 42.2833 22.4921 40.0475 22.5416C40.0178 22.5416 39.998 22.5416 39.9683 22.5416C39.9387 22.5416 39.9189 22.5416 39.8892 22.5416C37.6435 22.502 35.8429 20.6717 35.8429 18.4161ZM19.2818 16.3583C19.2818 13.242 21.8144 10.7093 24.9307 10.7093C28.0471 10.7093 30.5797 13.242 30.5797 16.3583C30.5797 19.3658 28.2153 21.8292 25.2572 21.9974C25.1484 21.9974 25.0396 21.9974 24.9307 21.9974C24.8219 21.9974 24.7131 21.9974 24.6043 21.9974C21.6462 21.8292 19.2818 19.3658 19.2818 16.3583ZM5.86664 18.4161C5.86664 16.1407 7.71666 14.2907 9.99209 14.2907C12.2675 14.2907 14.1175 16.1407 14.1175 18.4161C14.1175 20.6619 12.3071 22.4921 10.0712 22.5416C10.0416 22.5416 10.0218 22.5416 9.99209 22.5416C9.96241 22.5416 9.94262 22.5416 9.91294 22.5416C7.67709 22.502 5.86664 20.6717 5.86664 18.4161ZM12.4159 31.6729H1.60269C2.04788 27.4584 5.60942 24.1541 9.93273 24.1245C9.95251 24.1245 9.9723 24.1245 9.99209 24.1245C10.0119 24.1245 10.0317 24.1245 10.0514 24.1245C12.1092 24.1343 13.9889 24.8961 15.4432 26.1328C14.0186 27.6761 12.96 29.5756 12.4159 31.6729ZM36.2881 35.6104C36.2881 37.6385 34.6359 39.2907 32.6078 39.2907H17.2734C15.2454 39.2907 13.5932 37.6385 13.5932 35.6104V34.9377C13.5932 28.794 18.5002 23.7683 24.6043 23.5902C24.7131 23.6001 24.8318 23.6001 24.9406 23.6001C25.0495 23.6001 25.1682 23.6001 25.277 23.5902C31.3811 23.7683 36.2881 28.794 36.2881 34.9377V35.6104ZM37.4654 31.6729C36.9213 29.5855 35.8825 27.7157 34.4678 26.1723C35.9319 24.906 37.8314 24.1442 39.909 24.1245C39.9288 24.1245 39.9486 24.1245 39.9683 24.1245C39.9881 24.1245 40.0079 24.1245 40.0277 24.1245C44.351 24.1541 47.9125 27.4584 48.3577 31.6729H37.4654Z" fill="#3CB4A5"/>
</svg>
