<svg width="66" height="65" viewBox="0 0 66 65" fill="none" xmlns="http://www.w3.org/2000/svg">
<path fill-rule="evenodd" clip-rule="evenodd" d="M5.88404 34.1142C7.9028 25.7148 7.7706 17.6262 8.01254 9.10648C8.05955 7.44264 6.78227 6.05935 5.16119 6.00924C3.53913 5.95912 2.18542 7.2722 2.13743 8.93604C1.90822 17.0147 2.09337 24.7024 0.177463 32.6808C-0.21042 34.2945 0.754412 35.9283 2.32945 36.3192C3.90352 36.7201 5.49714 35.7279 5.88404 34.1142Z" fill="#3CB4A5"/>
<path fill-rule="evenodd" clip-rule="evenodd" d="M23.0351 50.3917C36.7305 37.5821 49.6345 21.1041 58.6537 4.46572C59.4403 3.01236 58.928 1.17805 57.5097 0.376198C56.0913 -0.425654 54.3008 0.0955939 53.5143 1.54895C44.7928 17.6361 32.313 33.5729 19.0701 45.9515C17.8731 47.0741 17.7899 48.9785 18.884 50.2013C19.9781 51.4242 21.8381 51.5143 23.0351 50.3917Z" fill="#3CB4A5"/>
<path fill-rule="evenodd" clip-rule="evenodd" d="M26.5045 64.384C39.0303 66.4989 51.9412 62.8906 63.3308 57.7888C64.8167 57.1173 65.4946 55.3432 64.8452 53.8297C64.1948 52.3062 62.46 51.6146 60.9741 52.2761C50.6012 56.9268 38.8697 60.3748 27.4614 58.4504C25.8609 58.1798 24.3476 59.2923 24.0841 60.9261C23.8196 62.5598 24.9049 64.1134 26.5045 64.384Z" fill="#3CB4A5"/>
</svg>
