<svg width="168" height="34" viewBox="0 0 168 34" fill="none" xmlns="http://www.w3.org/2000/svg">
<path d="M147.465 16.7061C147.465 13.5579 147.453 10.4109 147.476 7.26272C147.481 6.52537 147.182 5.5638 148.253 5.29221C149.239 5.04257 150.137 5.05298 150.929 6.02609C154.858 10.857 158.853 15.6371 162.85 20.4125C163.334 20.9904 163.792 22.1773 164.419 21.9311C165.203 21.6237 164.758 20.4391 164.765 19.644C164.805 15.4233 164.771 11.2026 164.798 6.98188C164.808 5.34537 165.119 5.13734 166.688 5.2298C167.485 5.27719 167.886 5.59154 167.908 6.37859C167.919 6.80736 167.92 7.23729 167.92 7.66606C167.922 13.7475 167.938 19.8277 167.901 25.908C167.896 26.6892 168.378 27.823 167.254 28.1478C166.194 28.454 165.218 28.0992 164.425 27.1273C160.489 22.3021 156.503 17.5163 152.497 12.7466C152.028 12.1872 151.688 11.0558 150.855 11.3493C150.251 11.562 150.598 12.6414 150.595 13.3279C150.571 17.692 150.563 22.056 150.594 26.42C150.601 27.4913 150.471 28.216 149.109 28.1466C147.628 28.0715 147.483 28.031 147.472 26.3633C147.45 23.1446 147.465 19.926 147.465 16.7061Z" fill="white"/>
<path d="M21.2707 16.6599C21.2719 13.6527 21.2314 10.6455 21.2973 7.63949C21.3158 6.8143 20.7414 5.64009 22.0508 5.25754C23.3002 4.89349 24.175 5.48407 24.9575 6.50572C26.6113 8.66577 28.4165 10.7091 30.0993 12.8483C30.7985 13.7382 31.2746 13.8318 32.0178 12.8818C33.6496 10.7946 35.3705 8.77672 37.0544 6.72878C37.3271 6.39709 37.593 6.05962 37.8611 5.7233C38.5349 4.87962 39.4491 5.15122 40.2477 5.33498C41.0717 5.52452 40.903 6.33121 40.903 6.95761C40.9087 13.4724 40.918 19.9872 40.8972 26.502C40.8926 28.0195 40.6649 28.0958 39.0989 28.1536C37.734 28.2044 37.6126 27.4775 37.6195 26.4084C37.6484 21.7555 37.6334 17.1014 37.623 12.4484C37.6219 12.1052 37.6299 11.5216 37.4762 11.4626C36.9747 11.2719 36.8013 11.8255 36.547 12.1295C35.1694 13.7787 33.8334 15.4637 32.4304 17.0898C31.2735 18.4305 30.8794 18.4339 29.7248 17.1049C28.4096 15.592 27.1799 14.004 25.8739 12.482C25.5307 12.0821 25.2868 11.2245 24.7124 11.4672C24.2548 11.6614 24.5402 12.4981 24.5379 13.0436C24.5206 17.4828 24.5402 21.9207 24.5229 26.3599C24.516 28.0368 24.3981 28.0669 22.8783 28.142C21.6636 28.2021 21.2279 27.7537 21.2499 26.5379C21.3077 23.2475 21.2695 19.9537 21.2707 16.6599Z" fill="white"/>
<path d="M0.00550573 16.8723C0.00550573 13.6478 -0.00951866 10.4234 0.0112843 7.20006C0.0228416 5.3509 0.109521 5.2596 1.96908 5.25151C6.49258 5.23186 11.0161 5.24342 15.5396 5.24573C16.3994 5.24573 17.3321 5.08046 17.2304 6.48698C17.1298 7.875 16.8929 8.209 15.4159 8.2194C11.8262 8.24367 8.23425 8.27141 4.64573 8.20207C3.45996 8.17895 2.95722 8.46904 3.06124 9.7334C3.16641 11.0139 3.1641 12.3176 3.06239 13.5993C2.96069 14.8868 3.51775 15.1503 4.6804 15.1133C7.04732 15.0359 9.41887 15.1121 11.7881 15.0798C12.7635 15.0659 13.4246 15.1653 13.4292 16.4297C13.4338 17.6559 12.997 18.08 11.7939 18.0477C9.56911 17.9864 7.34203 18.0315 5.11611 18.0326C2.75844 18.0338 3.10053 17.9598 3.08551 20.1592C3.07742 21.3056 3.15601 22.4579 3.0647 23.5963C2.96878 24.7936 3.36057 25.212 4.60644 25.1854C8.19495 25.1091 11.7869 25.1415 15.3766 25.1646C16.8999 25.175 17.153 25.479 17.2847 26.8392C17.376 27.7939 16.9865 28.1417 16.077 28.1325C14.2105 28.1129 12.3428 28.1279 10.4764 28.1279C7.60438 28.1279 4.73241 28.1429 1.86044 28.1198C0.0702262 28.1059 0.025153 28.0655 0.0124401 26.3296C-0.0106744 23.1779 0.00550573 20.0251 0.00550573 16.8723Z" fill="white"/>
<path d="M99.4605 28.5992C96.2799 28.568 93.3559 27.7821 90.9497 25.5931C89.7062 24.4617 89.8021 23.8411 91.1069 22.8841C91.768 22.3987 92.2037 22.5016 92.77 23.0367C94.9497 25.0996 97.6148 25.6948 100.526 25.444C101.835 25.3319 103.071 24.9737 104.083 24.0918C105.822 22.5779 105.696 20.3161 103.797 18.9928C102.782 18.2855 101.612 17.9446 100.424 17.6464C98.4804 17.1575 96.5064 16.7553 94.6642 15.9267C92.3389 14.8819 90.729 13.3078 90.7833 10.5514C90.8307 8.17178 92.4244 6.14348 95.1207 5.26976C98.8525 4.06087 102.483 4.63989 106.025 6.12846C107.21 6.62657 107.093 7.49337 106.718 8.43875C106.293 9.51241 105.597 9.23042 104.8 8.87099C102.468 7.82044 100.034 7.3385 97.4668 7.7326C96.8243 7.83084 96.1955 7.95681 95.6188 8.26539C94.6954 8.76119 93.9419 9.39568 93.9153 10.5479C93.8876 11.7869 94.6006 12.5439 95.6593 13.0085C96.9745 13.5863 98.351 13.9839 99.7505 14.3075C101.64 14.7444 103.501 15.2748 105.193 16.2641C109.408 18.7305 109.613 24.1311 105.59 26.9303C103.752 28.2108 101.663 28.6165 99.4605 28.5992Z" fill="white"/>
<path d="M67.3791 13.2036C67.3779 14.8516 67.3444 16.4997 67.3837 18.1466C67.5663 25.8275 61.0885 29.7246 54.2616 28.2881C49.5382 27.2941 46.6385 23.8281 46.5137 19.0192C46.4085 14.9383 46.4686 10.8528 46.4859 6.77083C46.4894 6.06122 46.167 5.0985 47.5111 5.12739C49.0251 5.15975 49.5301 5.51456 49.5463 6.91529C49.5798 9.78033 49.5555 12.6465 49.5579 15.5116C49.559 16.5864 49.5313 17.6624 49.5787 18.7349C49.7647 22.8885 52.5928 25.475 56.9221 25.4831C61.2295 25.4912 64.1419 22.8724 64.2425 18.7279C64.3361 14.862 64.2737 10.9915 64.269 7.12332C64.2679 6.23342 64.2297 5.43019 65.456 5.22794C67.0717 4.96212 67.3537 5.10312 67.3733 6.7558C67.3987 8.90545 67.3802 11.0539 67.3791 13.2036Z" fill="white"/>
<path d="M72.944 16.5598C72.9451 13.34 72.9798 10.119 72.9266 6.90028C72.9081 5.75381 73.1878 5.16786 74.4753 5.22333C75.9939 5.28921 76.1465 5.33313 76.1522 6.96616C76.1707 12.4038 76.1534 17.8427 76.1626 23.2803C76.1661 24.9827 75.8286 25.0625 77.8696 25.0474C80.8815 25.0255 83.8979 25.1214 86.9016 24.9712C88.3809 24.8972 88.3 25.6796 88.3902 26.662C88.4954 27.8061 88.062 28.1575 86.9455 28.1448C82.8589 28.0985 78.7711 28.1436 74.6833 28.1193C73.0098 28.1101 72.9544 28.035 72.9451 26.2193C72.9301 22.9995 72.9416 19.7797 72.944 16.5598Z" fill="white"/>
<path d="M115.659 16.7652C115.66 20.052 115.633 23.3389 115.676 26.6246C115.69 27.6971 115.372 28.171 114.213 28.1548C113.084 28.1398 112.51 27.8924 112.52 26.6027C112.566 20.0301 112.558 13.4563 112.527 6.88373C112.521 5.7176 112.893 5.22873 114.132 5.21371C115.43 5.19753 115.689 5.77655 115.672 6.90684C115.627 10.1914 115.657 13.4783 115.659 16.7652Z" fill="white"/>
<rect x="123.734" y="5" width="15.5748" height="15.5748" rx="7.78739" fill="#002540" stroke="white" stroke-width="2"/>
<rect x="123.734" y="13.3691" width="15.5748" height="15.5748" rx="7.78739" fill="#3CB4A5" stroke="white" stroke-width="2"/>
<mask id="path-10-inside-1_1803_1624" fill="white">
<path fill-rule="evenodd" clip-rule="evenodd" d="M139.251 16.972C137.764 19.7134 134.86 21.5748 131.522 21.5748C128.184 21.5748 125.28 19.7134 123.793 16.972C125.28 14.2305 128.184 12.3691 131.522 12.3691C134.86 12.3691 137.764 14.2305 139.251 16.972Z"/>
</mask>
<path fill-rule="evenodd" clip-rule="evenodd" d="M139.251 16.972C137.764 19.7134 134.86 21.5748 131.522 21.5748C128.184 21.5748 125.28 19.7134 123.793 16.972C125.28 14.2305 128.184 12.3691 131.522 12.3691C134.86 12.3691 137.764 14.2305 139.251 16.972Z" fill="#3C90B4"/>
<path d="M139.251 16.972L141.009 17.9257L141.526 16.972L141.009 16.0182L139.251 16.972ZM123.793 16.972L122.035 16.0182L121.518 16.972L122.035 17.9257L123.793 16.972ZM137.493 16.0182C136.341 18.1408 134.098 19.5748 131.522 19.5748V23.5748C135.623 23.5748 139.186 21.286 141.009 17.9257L137.493 16.0182ZM131.522 19.5748C128.946 19.5748 126.703 18.1408 125.551 16.0182L122.035 17.9257C123.858 21.286 127.421 23.5748 131.522 23.5748V19.5748ZM125.551 17.9257C126.703 15.8031 128.946 14.3691 131.522 14.3691V10.3691C127.421 10.3691 123.858 12.6579 122.035 16.0182L125.551 17.9257ZM131.522 14.3691C134.098 14.3691 136.341 15.8031 137.493 17.9257L141.009 16.0182C139.186 12.6579 135.623 10.3691 131.522 10.3691V14.3691Z" fill="white" mask="url(#path-10-inside-1_1803_1624)"/>
</svg>
