<svg width="24" height="25" viewBox="0 0 24 25" fill="none" xmlns="http://www.w3.org/2000/svg">
<path d="M12 9.97168C11.2044 9.97168 10.4413 10.2877 9.87868 10.8504C9.31607 11.413 9 12.176 9 12.9717C9 13.7673 9.31607 14.5304 9.87868 15.093C10.4413 15.6556 11.2044 15.9717 12 15.9717C12.7956 15.9717 13.5587 15.6556 14.1213 15.093C14.6839 14.5304 15 13.7673 15 12.9717C15 12.176 14.6839 11.413 14.1213 10.8504C13.5587 10.2877 12.7956 9.97168 12 9.97168ZM12 7.97168C13.3261 7.97168 14.5979 8.49846 15.5355 9.43615C16.4732 10.3738 17 11.6456 17 12.9717C17 14.2978 16.4732 15.5695 15.5355 16.5072C14.5979 17.4449 13.3261 17.9717 12 17.9717C10.6739 17.9717 9.40215 17.4449 8.46447 16.5072C7.52678 15.5695 7 14.2978 7 12.9717C7 11.6456 7.52678 10.3738 8.46447 9.43615C9.40215 8.49846 10.6739 7.97168 12 7.97168ZM18.5 7.72168C18.5 8.0532 18.3683 8.37114 18.1339 8.60556C17.8995 8.83998 17.5815 8.97168 17.25 8.97168C16.9185 8.97168 16.6005 8.83998 16.3661 8.60556C16.1317 8.37114 16 8.0532 16 7.72168C16 7.39016 16.1317 7.07222 16.3661 6.8378C16.6005 6.60338 16.9185 6.47168 17.25 6.47168C17.5815 6.47168 17.8995 6.60338 18.1339 6.8378C18.3683 7.07222 18.5 7.39016 18.5 7.72168ZM12 4.97168C9.526 4.97168 9.122 4.97868 7.971 5.02968C7.187 5.06668 6.661 5.17168 6.173 5.36168C5.739 5.52968 5.426 5.73068 5.093 6.06468C4.78001 6.36708 4.53935 6.73626 4.389 7.14468C4.199 7.63468 4.094 8.15968 4.058 8.94268C4.006 10.0467 4 10.4327 4 12.9717C4 15.4457 4.007 15.8497 4.058 17.0007C4.095 17.7837 4.2 18.3107 4.389 18.7977C4.559 19.2327 4.759 19.5457 5.091 19.8777C5.428 20.2137 5.741 20.4147 6.171 20.5807C6.665 20.7717 7.191 20.8777 7.971 20.9137C9.075 20.9657 9.461 20.9717 12 20.9717C14.474 20.9717 14.878 20.9647 16.029 20.9137C16.811 20.8767 17.338 20.7717 17.826 20.5827C18.259 20.4137 18.574 20.2127 18.906 19.8807C19.243 19.5437 19.444 19.2307 19.61 18.8007C19.8 18.3077 19.906 17.7807 19.942 17.0007C19.994 15.8967 20 15.5107 20 12.9717C20 10.4977 19.993 10.0937 19.942 8.94268C19.905 8.16068 19.8 7.63268 19.61 7.14468C19.4593 6.73668 19.2191 6.36764 18.907 6.06468C18.6047 5.75153 18.2355 5.51085 17.827 5.36068C17.337 5.17068 16.811 5.06568 16.029 5.02968C14.925 4.97768 14.539 4.97168 12 4.97168ZM12 2.97168C14.717 2.97168 15.056 2.98168 16.122 3.03168C17.187 3.08168 17.912 3.24868 18.55 3.49668C19.21 3.75068 19.766 4.09468 20.322 4.64968C20.8305 5.14958 21.224 5.75427 21.475 6.42168C21.722 7.05868 21.89 7.78468 21.94 8.84968C21.987 9.91568 22 10.2547 22 12.9717C22 15.6887 21.99 16.0277 21.94 17.0937C21.89 18.1587 21.722 18.8837 21.475 19.5217C21.2247 20.1895 20.8311 20.7943 20.322 21.2937C19.822 21.802 19.2173 22.1954 18.55 22.4467C17.913 22.6937 17.187 22.8617 16.122 22.9117C15.056 22.9587 14.717 22.9717 12 22.9717C9.283 22.9717 8.944 22.9617 7.878 22.9117C6.813 22.8617 6.088 22.6937 5.45 22.4467C4.78233 22.1962 4.17753 21.8026 3.678 21.2937C3.16941 20.7939 2.77593 20.1891 2.525 19.5217C2.277 18.8847 2.11 18.1587 2.06 17.0937C2.013 16.0277 2 15.6887 2 12.9717C2 10.2547 2.01 9.91568 2.06 8.84968C2.11 7.78368 2.277 7.05968 2.525 6.42168C2.77524 5.75386 3.1688 5.149 3.678 4.64968C4.17767 4.14091 4.78243 3.74741 5.45 3.49668C6.088 3.24868 6.812 3.08168 7.878 3.03168C8.944 2.98468 9.283 2.97168 12 2.97168Z" fill="white"/>
</svg>
