<svg width="142" height="22" viewBox="0 0 142 22" fill="none" xmlns="http://www.w3.org/2000/svg">
<path d="M124.645 10.7744C124.645 8.11348 124.634 5.45349 124.654 2.79252C124.659 2.16928 124.406 1.35654 125.311 1.12697C126.145 0.915973 126.904 0.924764 127.573 1.74728C130.894 5.83056 134.27 9.87085 137.649 13.9072C138.058 14.3957 138.445 15.3989 138.975 15.1908C139.638 14.931 139.262 13.9297 139.268 13.2576C139.301 9.69013 139.273 6.12264 139.295 2.55514C139.304 1.17191 139.567 0.996075 140.893 1.07422C141.566 1.11428 141.905 1.37998 141.924 2.04522C141.934 2.40764 141.935 2.77103 141.935 3.13345C141.936 8.27369 141.949 13.4129 141.918 18.5522C141.914 19.2126 142.321 20.1709 141.371 20.4454C140.475 20.7042 139.651 20.4043 138.981 19.5828C135.653 15.5044 132.284 11.4592 128.898 7.42772C128.502 6.95492 128.215 5.99858 127.51 6.2467C126.999 6.42644 127.293 7.33883 127.29 7.91908C127.27 11.6077 127.263 15.2963 127.289 18.985C127.295 19.8905 127.186 20.503 126.034 20.4444C124.783 20.3809 124.66 20.3467 124.651 18.9371C124.632 16.2165 124.645 13.496 124.645 10.7744Z" fill="#001321"/>
<path d="M17.9805 10.7354C17.9815 8.19358 17.9473 5.65179 18.0029 3.11097C18.0186 2.41349 17.5331 1.421 18.6399 1.09766C19.6958 0.789951 20.4353 1.28913 21.0967 2.15267C22.4946 3.97842 24.0204 5.70551 25.4427 7.51368C26.0337 8.26586 26.4362 8.34499 27.0643 7.54201C28.4436 5.7778 29.8982 4.0722 31.3215 2.34121C31.552 2.06085 31.7767 1.7756 32.0033 1.49134C32.5728 0.778229 33.3455 1.00779 34.0205 1.16311C34.717 1.32332 34.5744 2.00517 34.5744 2.53462C34.5793 8.04119 34.5871 13.5477 34.5695 19.0543C34.5656 20.3369 34.3732 20.4014 33.0495 20.4502C31.8959 20.4932 31.7933 19.8788 31.7991 18.9752C31.8236 15.0423 31.8109 11.1085 31.8021 7.17569C31.8011 6.88556 31.8079 6.39225 31.678 6.34243C31.2541 6.18124 31.1075 6.64916 30.8926 6.90608C29.7282 8.30006 28.599 9.72432 27.413 11.0988C26.4352 12.2319 26.1021 12.2348 25.1262 11.1115C24.0145 9.83275 22.9752 8.49054 21.8713 7.20402C21.5812 6.86602 21.3751 6.14119 20.8896 6.34633C20.5027 6.51045 20.744 7.21769 20.7421 7.67877C20.7274 11.4309 20.744 15.182 20.7294 18.9342C20.7235 20.3516 20.6239 20.377 19.3393 20.4405C18.3126 20.4913 17.9443 20.1123 17.9629 19.0846C18.0117 16.3035 17.9795 13.5194 17.9805 10.7354Z" fill="#001321"/>
<path d="M0.00465366 10.915C0.00465366 8.1896 -0.00804553 5.46416 0.00953796 2.73969C0.0193066 1.17672 0.0925712 1.09954 1.66434 1.09271C5.48777 1.0761 9.3112 1.08587 13.1346 1.08782C13.8614 1.08782 14.6497 0.948131 14.5638 2.13697C14.4788 3.31018 14.2785 3.59249 13.0301 3.60128C9.99598 3.6218 6.9599 3.64524 3.92675 3.58663C2.92449 3.56709 2.49956 3.81229 2.58747 4.88097C2.67637 5.96333 2.67441 7.06523 2.58845 8.14857C2.50249 9.23679 2.97333 9.45952 3.95605 9.42826C5.95667 9.36281 7.96118 9.42728 9.96375 9.39993C10.7882 9.3882 11.347 9.47221 11.3509 10.5409C11.3548 11.5773 10.9855 11.9359 9.96863 11.9085C8.08818 11.8567 6.20576 11.8948 4.32433 11.8958C2.33154 11.8968 2.62069 11.8343 2.60799 13.6932C2.60115 14.6623 2.66758 15.6362 2.5904 16.5984C2.50932 17.6104 2.84048 17.9641 3.89354 17.9416C6.92669 17.8771 9.96277 17.9045 12.9969 17.924C14.2844 17.9328 14.4983 18.1897 14.6097 19.3395C14.6869 20.1464 14.3577 20.4404 13.5889 20.4326C12.0112 20.416 10.4326 20.4287 8.85501 20.4287C6.42751 20.4287 4.00001 20.4414 1.57251 20.4218C0.0593579 20.4101 0.0212603 20.3759 0.0105148 18.9087C-0.00902239 16.2448 0.00465366 13.5799 0.00465366 10.915Z" fill="#001321"/>
<path d="M84.0658 20.8272C81.3775 20.8008 78.906 20.1366 76.8722 18.2864C75.8211 17.33 75.9022 16.8055 77.0051 15.9966C77.5638 15.5863 77.9321 15.6733 78.4108 16.1256C80.2531 17.8693 82.5058 18.3723 84.9665 18.1604C86.0733 18.0656 87.1175 17.7628 87.9733 17.0174C89.4425 15.7378 89.336 13.826 87.731 12.7075C86.8733 12.1097 85.8847 11.8215 84.8805 11.5695C83.2374 11.1563 81.569 10.8163 80.0118 10.1159C78.0464 9.23284 76.6856 7.90236 76.7315 5.57255C76.7716 3.56119 78.1187 1.8468 80.3977 1.10829C83.552 0.0864969 86.6203 0.575904 89.6144 1.8341C90.6157 2.25513 90.517 2.98777 90.2005 3.78684C89.841 4.69435 89.2529 4.45599 88.5789 4.15219C86.6076 3.26422 84.5503 2.85687 82.3807 3.18998C81.8376 3.27302 81.3062 3.37949 80.8187 3.64032C80.0382 4.05939 79.4013 4.59568 79.3788 5.56961C79.3554 6.61681 79.9581 7.25665 80.8529 7.64935C81.9646 8.13778 83.128 8.47382 84.311 8.74734C85.9082 9.1166 87.4809 9.56497 88.911 10.4012C92.4737 12.4858 92.6475 17.0507 89.2471 19.4166C87.6929 20.499 85.9277 20.8419 84.0658 20.8272Z" fill="#001321"/>
<path d="M56.9491 7.81444C56.9482 9.20744 56.9198 10.6004 56.953 11.9925C57.1074 18.4847 51.6321 21.7787 45.8618 20.5644C41.8693 19.7243 39.4184 16.7947 39.3129 12.73C39.224 9.28071 39.2748 5.82751 39.2895 2.37724C39.2924 1.77744 39.0198 0.963719 40.1559 0.988141C41.4356 1.01549 41.8625 1.31539 41.8762 2.49934C41.9045 4.92098 41.884 7.34359 41.886 9.76523C41.8869 10.6737 41.8635 11.5832 41.9035 12.4897C42.0608 16.0005 44.4512 18.1867 48.1105 18.1936C51.7513 18.2004 54.213 15.9869 54.2979 12.4838C54.3771 9.21624 54.3243 5.94473 54.3204 2.67518C54.3194 1.923 54.2872 1.24408 55.3236 1.07313C56.6893 0.84845 56.9277 0.967626 56.9443 2.36454C56.9658 4.1815 56.9501 5.99748 56.9491 7.81444Z" fill="#001321"/>
<path d="M61.656 10.6512C61.657 7.9297 61.6863 5.20719 61.6413 2.48663C61.6257 1.51759 61.8621 1.02232 62.9503 1.06921C64.2339 1.12489 64.3629 1.16201 64.3678 2.54231C64.3834 7.13844 64.3687 11.7355 64.3765 16.3317C64.3795 17.7706 64.0942 17.838 65.8194 17.8253C68.3651 17.8067 70.9147 17.8878 73.4535 17.7608C74.7039 17.6983 74.6355 18.3596 74.7117 19.19C74.8006 20.1571 74.4343 20.454 73.4907 20.4433C70.0365 20.4042 66.5813 20.4423 63.1262 20.4218C61.7117 20.414 61.6648 20.3505 61.657 18.8158C61.6443 16.0943 61.654 13.3728 61.656 10.6512Z" fill="#001321"/>
<path d="M97.7587 10.8253C97.7597 13.6035 97.7372 16.3817 97.7734 19.1589C97.7851 20.0654 97.5164 20.4659 96.5367 20.4522C95.5823 20.4395 95.0977 20.2305 95.1056 19.1403C95.1446 13.5849 95.1378 8.02853 95.1114 2.47312C95.1065 1.48747 95.4211 1.07426 96.4683 1.06156C97.5653 1.04788 97.7841 1.53729 97.7704 2.49266C97.7323 5.2689 97.7577 8.04709 97.7587 10.8253Z" fill="#001321"/>
<rect x="104.738" y="1.03564" width="12.8549" height="12.8549" rx="6.42744" fill="#002540" stroke="#001321" stroke-width="2"/>
<rect x="104.738" y="8.10938" width="12.8549" height="12.8549" rx="6.42744" fill="#3CB4A5" stroke="#001321" stroke-width="2"/>
<mask id="path-10-inside-1_1803_1713" fill="white">
<path fill-rule="evenodd" clip-rule="evenodd" d="M117.699 11C116.441 13.3173 113.987 14.8906 111.166 14.8906C108.344 14.8906 105.89 13.3173 104.633 11C105.89 8.68273 108.344 7.10937 111.166 7.10937C113.987 7.10937 116.441 8.68273 117.699 11Z"/>
</mask>
<path fill-rule="evenodd" clip-rule="evenodd" d="M117.699 11C116.441 13.3173 113.987 14.8906 111.166 14.8906C108.344 14.8906 105.89 13.3173 104.633 11C105.89 8.68273 108.344 7.10937 111.166 7.10937C113.987 7.10937 116.441 8.68273 117.699 11Z" fill="#3C90B4"/>
<path d="M117.699 11L119.457 11.9537L119.974 11L119.457 10.0463L117.699 11ZM104.633 11L102.875 10.0463L102.357 11L102.875 11.9537L104.633 11ZM115.941 10.0463C115.019 11.7447 113.225 12.8906 111.166 12.8906V16.8906C114.75 16.8906 117.864 14.8898 119.457 11.9537L115.941 10.0463ZM111.166 12.8906C109.107 12.8906 107.312 11.7447 106.391 10.0463L102.875 11.9537C104.468 14.8898 107.582 16.8906 111.166 16.8906V12.8906ZM106.391 11.9537C107.312 10.2553 109.107 9.10938 111.166 9.10938V5.10938C107.582 5.10938 104.468 7.11016 102.875 10.0463L106.391 11.9537ZM111.166 9.10938C113.225 9.10938 115.019 10.2553 115.941 11.9537L119.457 10.0463C117.864 7.11016 114.75 5.10938 111.166 5.10938V9.10938Z" fill="#001321" mask="url(#path-10-inside-1_1803_1713)"/>
</svg>
