<svg width="65" height="65" viewBox="0 0 65 65" fill="none" xmlns="http://www.w3.org/2000/svg">
<path fill-rule="evenodd" clip-rule="evenodd" d="M59.2076 34.1142C57.1889 25.7148 57.3211 17.6262 57.0791 9.10648C57.0321 7.44264 58.3094 6.05935 59.9305 6.00924C61.5525 5.95912 62.9063 7.2722 62.9542 8.93604C63.1835 17.0147 62.9983 24.7024 64.9142 32.6808C65.3021 34.2945 64.3373 35.9283 62.7622 36.3192C61.1882 36.7201 59.5945 35.7279 59.2076 34.1142Z" fill="#3CB4A5"/>
<path fill-rule="evenodd" clip-rule="evenodd" d="M42.0565 50.3917C28.3611 37.5821 15.4571 21.1041 6.43781 4.46572C5.65126 3.01236 6.16357 1.17805 7.58189 0.376198C9.00021 -0.425654 10.7907 0.0955939 11.5773 1.54895C20.2988 17.6361 32.7786 33.5729 46.0215 45.9515C47.2184 47.0741 47.3017 48.9785 46.2076 50.2013C45.1135 51.4242 43.2534 51.5143 42.0565 50.3917Z" fill="#3CB4A5"/>
<path fill-rule="evenodd" clip-rule="evenodd" d="M38.5872 64.384C26.0613 66.4989 13.1505 62.8906 1.76085 57.7888C0.274946 57.1173 -0.402891 55.3432 0.24652 53.8297C0.89691 52.3062 2.63164 51.6146 4.11754 52.2761C14.4905 56.9268 26.222 60.3748 37.6302 58.4504C39.2308 58.1798 40.7441 59.2923 41.0076 60.9261C41.272 62.5598 40.1867 64.1134 38.5872 64.384Z" fill="#3CB4A5"/>
</svg>
