<svg width="146" height="72" viewBox="0 0 146 72" fill="none" xmlns="http://www.w3.org/2000/svg">
<g opacity="0.5">
<path d="M106.086 9.01305C109.302 8.74504 112.278 8.32456 115.254 8.31532C116.973 8.31069 118.955 8.54635 120.36 9.41506C122.361 10.658 123.973 10.2745 125.914 9.59989C129.509 8.3569 133.224 7.76544 137.027 8.60642C141.597 9.61837 144.393 12.5526 145.146 17.2241C146.135 23.3882 144.665 29.3398 143.311 35.2498C141.042 45.1567 137.715 54.6523 131.154 62.6601C125.415 69.6652 118.216 73.0384 108.997 71.5921C101.789 70.4646 97.1313 65.3125 97.062 58.0301C97.0528 57.1984 97.062 56.3713 97.062 55.1329C91.3507 58.1872 85.9676 58.3628 80.7184 54.4444C80.2332 55.8537 79.845 57.1568 79.3368 58.4044C77.0264 64.0741 72.9647 68.0156 67.2073 69.9933C60.2715 72.3776 53.1832 72.6779 46.1042 70.6125C37.4542 68.0895 33.5357 60.9227 36.7379 53.2338C36.7841 53.1229 36.6964 52.9519 36.6317 52.61C33.0136 55.7105 28.9057 57.4294 24.2157 57.6512C16.0092 58.0394 9.62791 54.6708 5.33522 47.8182C-0.95826 37.7681 -0.602462 27.071 3.16808 16.2723C4.83156 11.5083 7.65022 7.46972 11.9891 4.73422C17.6172 1.18548 23.481 0.778848 29.5573 3.69455C30.2873 4.04573 31.4795 4.07345 32.1911 3.71765C39.5982 0.0302821 48.2945 1.70762 53.7377 8.13048C54.7913 9.37347 55.6831 9.84941 57.2403 9.22099C58.2152 8.82822 59.3335 8.70808 60.3962 8.61566C63.6677 8.32455 66.7868 7.83013 69.8365 6.27293C73.0895 4.61408 76.7491 4.39228 80.4042 5.41809C81.0511 5.5983 82.0122 5.20092 82.6452 4.78505C86.6191 2.1928 90.8702 0.672569 95.6943 1.02837C100.883 1.42113 104.626 3.68531 106.086 9.01305ZM61.5607 52.5037C61.6439 52.7717 61.7317 53.0351 61.8148 53.3031C61.2141 53.6543 60.655 54.2088 60.0127 54.3243C55.05 55.2115 50.1936 54.9758 45.6699 52.476C43.1423 51.0759 41.7977 51.3346 40.2728 53.8298C38.9836 55.9415 38.4615 58.215 39.2655 60.6778C40.7257 65.1461 44.3992 66.8327 48.4747 67.7938C53.8856 69.0691 59.3335 68.8289 64.6982 67.4149C72.4934 65.3633 77.2251 59.9616 77.9043 52.1017C78.2555 48.0631 77.4654 44.2048 74.7437 40.8409C70.3679 43.6457 65.6732 44.251 60.8306 44.0847C59.68 44.0431 58.0766 44.2464 58.0674 42.107C59.7586 42.107 61.3527 42.1486 62.9423 42.1023C74.6975 41.7465 82.0584 33.2998 80.3348 22.0297C80.0761 20.3432 80.0807 19.0817 81.2636 17.6354C82.9687 15.5468 82.9317 12.9777 81.564 10.6858C80.2147 8.42159 77.8674 7.98262 75.4692 8.39387C73.2327 8.77739 70.257 8.34766 70.4187 11.9611C67.1056 11.9611 63.9311 11.6746 60.826 12.0165C51.6907 13.0239 45.6745 19.6778 45.8732 28.6236C45.9379 31.4422 46.8666 34.2424 47.435 37.2552C47.4674 37.2367 47.1393 37.4308 46.8112 37.6248C44.0156 39.2837 42.3013 41.6356 42.5324 44.9857C42.7588 48.2895 44.8058 50.563 47.8047 51.3115C51.2564 52.171 54.8837 52.3327 58.4463 52.7024C59.4767 52.7994 60.5256 52.5776 61.5607 52.5037ZM103.305 49.1074C99.1552 51.2561 97.8383 60.8811 103.235 65.3494C107.459 68.8473 112.408 69.2262 117.435 68.0248C124.537 66.3244 128.936 61.1815 132.434 55.1837C136.902 47.5133 139.652 39.1866 141.075 30.4673C141.74 26.401 142.151 22.21 141.967 18.1067C141.791 14.1467 139.25 11.9241 135.299 11.8086C132.739 11.7347 130.133 12.3169 127.591 12.8206C125.632 13.2041 124.237 14.1144 125.226 16.6096C125.6 17.5522 125.54 18.7767 125.341 19.8118C124.343 25.0148 123.248 30.2039 122.134 35.3838C122.028 35.8828 121.547 36.2987 121.238 36.7561C121.002 36.6914 120.762 36.6221 120.526 36.5574C120.6 35.6564 120.586 34.7368 120.762 33.8543C121.589 29.6263 122.587 25.4306 123.303 21.1841C124.288 15.3343 121.557 11.8456 115.661 11.633C113.004 11.536 110.314 12.0905 107.662 12.4971C107.209 12.5664 106.618 13.3335 106.521 13.8602C105.527 19.1464 104.492 24.4279 103.744 29.7557C103.212 33.5493 102.759 37.4123 102.898 41.2244C103.083 46.395 105.892 49.2923 111.007 50.0223C113.091 50.3181 115.272 49.9623 117.407 49.8791C118.036 49.856 118.664 49.7451 119.473 49.6527C117.786 53.4694 109.792 53.0351 103.305 49.1074ZM29.4048 7.47434C28.0509 6.84591 27.0528 6.25445 25.9762 5.91252C19.3685 3.81469 12.3172 6.51322 8.39879 13.1394C2.89546 22.4502 2.17 32.3987 6.10689 42.435C9.10114 50.0639 15.8706 54.4952 23.1899 54.3381C30.9112 54.1718 36.7564 49.9207 39.5936 41.7465C40.892 38.013 41.5112 34.0021 42.0749 30.0653C42.9714 23.7903 44.1635 17.7278 49.2741 13.3104C50.1243 12.5757 51.0253 11.8918 51.8894 11.1941C46.2521 3.02454 34.0902 3.33875 28.5684 11.6885C25.6435 16.1059 24.4328 21.0871 23.9292 26.2808C23.7721 27.8889 23.7906 29.5108 23.5919 31.1142C23.5318 31.5855 23.0096 32.0014 22.7001 32.4403C22.4043 31.9783 21.9422 31.5439 21.8498 31.0449C21.7112 30.3055 21.7944 29.5108 21.8498 28.7437C22.432 21.1195 23.846 13.7817 29.4048 7.47434ZM84.0315 7.98262C86.1986 11.9472 85.8058 15.8934 84.8863 19.858C83.477 25.9297 81.929 31.969 80.6722 38.0684C79.8913 41.8574 79.785 45.7296 81.2775 49.4401C82.599 52.7301 85.0758 54.4305 88.606 54.3659C93.6242 54.2781 97.0528 51.464 99.7421 47.5502C100.029 47.1344 99.9269 46.4181 99.9084 45.8405C99.8252 42.8694 99.3308 39.8567 99.6959 36.941C100.38 31.4515 101.65 26.0359 102.473 20.5603C102.93 17.5337 103.212 14.4378 103.138 11.3835C103.051 7.68227 100.874 5.3303 97.3023 4.65567C92.4967 3.75 88.1994 5.06692 84.0315 7.98262Z" fill="#4A7797"/>
<path d="M145.137 52.3558C144.864 53.9962 144.037 55.0451 142.226 54.925C140.465 54.8049 139.897 53.6127 139.906 52.0647C139.915 50.392 140.867 49.454 142.498 49.4679C144.286 49.4817 145.035 50.6462 145.137 52.3558ZM145.358 52.0463C144.051 51.2238 143.21 50.2811 142.507 50.3689C141.754 50.466 141.126 51.5426 140.442 52.1895C141.158 52.9196 141.791 54.084 142.614 54.2319C143.219 54.3382 144.065 53.1321 145.358 52.0463Z" fill="#4A7797"/>
<path d="M61.6257 29.9731C62.1248 27.9769 62.6007 25.9761 63.1875 24.0077C63.2199 23.8968 64.5276 23.8829 64.6662 24.1325C65.2299 25.1768 63.5711 29.4556 62.4667 30.1579C62.1848 30.0979 61.903 30.0378 61.6257 29.9731Z" fill="#4A7797"/>
</g>
</svg>
