<svg width="146" height="89" viewBox="0 0 146 89" fill="none" xmlns="http://www.w3.org/2000/svg">
<g opacity="0.5">
<path d="M53.0473 65.6712C53.0473 71.909 53.0473 78.1468 53.0473 84.3846C53.0473 85.8302 53.5518 86.6197 54.4397 86.8627C55.1319 87.0571 55.8281 87.2211 56.5243 87.7859C53.5049 87.7859 50.4816 87.7859 47.1885 87.7859C51.7605 85.9395 51.0605 87.0024 51.1152 79.641C51.1504 75.0917 51.1231 70.5364 51.1231 65.981C51.1231 61.3771 51.0174 61.1888 48.0137 60.466C47.779 60.4114 47.4857 60.4903 47.3919 59.5125C49.7776 59.5125 52.1243 59.4881 54.4709 59.5246C55.347 59.5367 55.5778 60.8001 55.965 61.6747C58.8631 68.2283 61.7417 74.8062 64.7571 81.6696C67.6631 74.9884 70.526 68.6231 73.2208 62.0877C74.0695 60.0287 75.0003 59.2816 76.5217 59.4456C78.3091 59.64 80.1121 59.4881 81.966 59.4881C81.8799 59.9255 81.8525 60.2474 81.8095 60.2534C77.7263 60.8608 78.2426 61.8387 78.223 67.1715C78.2074 72.0244 78.2191 76.8835 78.2191 81.7364C78.223 86.3889 79.5528 88.0471 82.537 87.4336C84.4651 87.0388 85.4898 85.8788 85.2278 82.5503C85.0557 80.3577 85.1965 78.1043 85.1965 75.8813C85.1965 71.3138 85.1965 71.3138 82.4118 70.4938C84.3791 69.6374 86.3503 68.7811 88.6304 67.785C88.6304 72.9537 88.7243 77.582 88.5992 82.198C88.5131 85.3078 88.9003 87.4579 91.2431 87.7859C84.4378 87.7859 77.6324 87.7859 70.8349 87.7859C70.8349 87.7738 70.8272 87.4337 70.8584 87.4215C74.3589 86.3586 74.3588 86.3586 74.351 80.6067C74.3471 75.5047 74.3511 70.4027 74.003 65.1489C70.6394 72.8505 67.2759 80.5581 63.6738 88.8124C60.1264 80.7221 56.7902 73.0995 53.4501 65.483C53.3133 65.5498 53.1803 65.6105 53.0473 65.6712Z" fill="#4A7797"/>
<path d="M134.249 68.976C134.011 70.1361 133.189 69.5226 132.931 70.6463C133.432 72.5049 134.683 73.5496 135.45 75.2563C136.506 73.7075 137.484 72.2741 138.34 71.0168C138.376 69.3708 137.257 70.2272 137.147 69.1764C137.277 68.5144 140.241 68.399 143.057 69.1218C140.323 70.4459 138.583 73.7622 136.369 76.7808C139.224 80.4616 141.145 85.6304 145.447 87.7987C142.158 87.7987 139.435 87.7987 136.213 87.7987C137.116 87.1913 137.609 86.8572 138.286 86.4078C137.28 83.5652 135.669 81.8464 134.355 79.6051C132.857 81.7674 131.265 83.5106 130.19 85.8672C130.401 87.2459 131.449 86.6021 131.762 88.2056C129.669 87.41 127.616 89.4265 125.684 87.1002C125.383 86.7358 124.585 87.3674 124.014 87.5497C122.95 87.8898 121.961 88.8555 120.733 88.4729C120.643 87.4829 120.553 86.505 120.459 85.4846C119.7 85.2113 119.297 86.1709 118.781 86.6447C117.408 87.9019 115.961 88.7097 114.35 88.649C111.491 88.5336 110.008 86.4139 109.848 82.0164C109.746 79.2954 109.699 76.55 109.809 73.829C109.918 71.0776 109.433 69.4741 107.462 69.7352C107.22 69.7656 106.942 69.7109 106.825 68.6845C107.834 68.6845 108.815 68.6845 109.793 68.6845C110.83 68.6845 111.87 68.6845 113.157 68.6845C113.157 72.6324 113.122 76.4407 113.172 80.255C113.2 82.4173 112.957 84.859 114.87 85.6789C116.423 86.347 119.598 85.193 120.326 83.4802C120.553 82.9457 120.572 82.144 120.584 81.4637C120.611 79.4411 120.584 77.4186 120.584 75.396C120.584 70.5248 120.584 70.5248 117.788 68.9882C119.767 68.9882 121.746 68.9882 123.963 68.9882C123.963 72.8207 123.951 76.7322 123.967 80.6377C123.975 82.6238 123.654 85.2052 125.058 86.0251C126.505 86.8694 128.062 86.2499 129.286 84.203C130.514 82.15 131.95 80.3947 133.475 78.2568C130.898 75.1652 129.47 70.1422 125.88 68.976C128.645 68.976 131.41 68.976 134.249 68.976Z" fill="#4A7797"/>
<path d="M48.8188 37.532C49.7653 36.129 51.0129 36.3051 52.0103 35.1146C51.4744 33.001 50.4615 31.3125 49.6206 29.2595C50.7313 28.7493 51.5097 29.8304 52.3271 30.4075C58.8664 34.9871 65.6287 37.9572 72.8799 37.6231C79.2315 37.3316 85.149 34.3797 90.9413 30.6201C92.1147 29.8608 93.288 29.0955 95.0362 27.9658C93.9216 30.8326 93.1159 32.9099 92.2672 35.0843C93.2137 35.8071 94.0702 36.457 95.0871 37.2283C79.5639 44.3104 64.2638 45.1243 48.8188 37.532Z" fill="#4A7797"/>
<path d="M0.0860804 59.6537C4.03629 59.6537 7.98646 59.6537 11.9797 59.6537C11.7998 60.8684 11.2327 60.4311 10.8572 60.4919C7.88477 60.9899 7.65795 61.3422 7.65404 65.8611C7.65013 71.4186 7.69313 76.9761 7.63447 82.5336C7.611 84.9206 8.18596 86.1536 9.76213 86.1354C11.8428 86.1111 13.9274 86.1475 16.0081 86.0746C18.699 85.9775 20.8422 84.1918 22.4028 79.9705C22.5983 85.0846 20.9048 88.1033 18.3391 88.1093C12.8714 88.1154 7.40765 88.1154 1.93994 88.1154C1.32589 88.1154 0.707908 88.1154 0 88.1154C0.144711 87.6538 0.179908 87.3927 0.242486 87.3744C3.78203 86.5484 3.78205 86.5545 3.78205 80.9119C3.78205 76.3627 3.78596 71.8134 3.78205 67.2702C3.77814 61.2754 3.77815 61.2754 0.0860804 59.6537Z" fill="#4A7797"/>
<path d="M94.9667 76.0391C94.9237 80.1025 96.097 82.5077 98.076 83.8621C101.518 86.2248 104.623 85.575 107.169 80.1936C107.459 82.3741 106.837 83.4005 106.274 84.4027C103.207 89.8327 96.9222 90.1121 93.6252 84.9797C91.2003 81.2079 91.4467 74.7333 94.1493 71.2469C96.9614 67.6209 102.116 67.0742 105.198 70.0807C106.61 71.4534 107.095 72.7107 107.412 76.0391C103.325 76.0391 99.2611 76.0391 94.9667 76.0391ZM95.0449 74.6786C97.7475 74.6786 100.423 74.6786 103.114 74.6786C102.805 71.502 101.815 70.1232 99.7539 69.856C97.3759 69.5462 95.6942 71.2287 95.0449 74.6786Z" fill="#4A7797"/>
<path d="M39.0577 76.1385C34.8493 76.1385 30.7818 76.1385 26.6126 76.1385C26.4835 79.722 27.5082 82.0908 29.2643 83.506C32.8351 86.3789 36.1087 85.8019 38.8426 80.6088C38.7878 83.6335 37.6184 85.3038 36.2808 86.6644C33.4257 89.5676 28.8693 89.27 26.1159 86.1177C22.5255 82.0118 22.7914 73.7697 26.6595 70.3562C29.6046 67.7566 32.7217 67.4165 35.8702 69.3115C37.7279 70.4291 38.9482 72.4881 39.0577 76.1385ZM34.7242 74.7172C34.4074 71.4009 33.3045 69.9797 31.126 69.846C28.7676 69.7003 27.2501 71.328 26.6712 74.7172C29.3269 74.7172 31.9551 74.7172 34.7242 74.7172Z" fill="#4A7797"/>
<path d="M81.9816 28.3492C78.7276 29.8373 75.7317 31.7748 72.9548 34.4473C72.2899 35.0851 71.7776 35.3159 71.0188 34.6356C68.2068 32.1089 65.293 29.892 62.1445 28.2946C62.1445 21.249 62.1445 14.2884 62.1445 7.04847C65.4025 5.61506 68.4923 3.34952 71.3982 0.506993C71.9575 -0.0396473 72.3251 0.185083 72.7905 0.658838C75.5909 3.50137 78.6415 5.47536 81.9816 6.7387C81.9816 13.8997 81.9816 21.0303 81.9816 28.3492ZM63.3179 8.51224C63.3179 14.7925 63.3179 20.8481 63.3179 26.9826C65.9422 28.3492 68.4219 30.0803 70.7842 32.1818C71.5273 32.8438 72.1491 32.9896 72.9391 32.2364C75.3836 29.9163 78.0236 28.2581 80.8044 27.0252C80.8044 20.7084 80.8044 14.4706 80.8044 8.19641C77.9689 7.21245 75.3914 5.57254 73.0135 3.24628C72.329 2.57816 71.8167 2.44453 71.0931 3.14909C68.7113 5.45713 66.1573 7.2246 63.3179 8.51224Z" fill="#4A7797"/>
<path d="M83.7236 27.4264C83.7236 20.2594 83.7236 13.5053 83.7236 6.41722C85.7887 5.84629 87.8655 5.37861 90.216 5.31787C87.8068 11.9687 85.4719 18.4798 89.7037 25.5253C87.6582 26.4911 85.7887 27.0316 83.7236 27.4264Z" fill="#4A7797"/>
<path d="M60.467 27.6869C58.5153 27.0856 56.6772 26.5147 54.5339 25.8526C58.6249 18.9042 56.6654 12.3567 54.0137 5.5662C56.3682 5.34147 58.3941 6.17964 60.467 6.42866C60.467 13.6322 60.467 20.5684 60.467 27.6869Z" fill="#4A7797"/>
<path d="M86.8143 62.5512C85.9304 62.369 84.8705 62.1017 84.8939 60.3221C84.9174 58.5728 85.9186 58.2388 86.9003 58.2388C87.8977 58.2388 88.9067 58.7004 88.8872 60.3828C88.8715 62.0288 87.8351 62.4722 86.8143 62.5512Z" fill="#4A7797"/>
<path d="M74.0395 15.1561C75.69 15.1561 77.1801 15.1561 78.7523 15.1561C79.1043 17.0026 78.8892 18.7579 78.9283 20.7501C77.2348 20.7501 75.6978 20.7501 73.973 20.7501C73.973 23.4469 73.973 25.925 73.973 28.561C72.6432 28.561 71.5051 28.561 70.2574 28.561C69.7607 26.1497 70.2887 23.5987 69.9289 21.0477C68.3723 20.3128 66.7218 21.1085 65.04 20.5315C65.04 18.849 65.04 17.1848 65.04 15.2108C66.6671 15.2108 68.2628 15.2108 70.0267 15.2108C70.0267 12.5323 70.0267 10.1453 70.0267 7.55176C71.3291 7.55176 72.4633 7.55176 73.7305 7.55176C74.2155 9.84157 73.6992 12.3926 74.0395 15.1561Z" fill="#4A7797"/>
</g>
</svg>
