<svg width="28" height="12" viewBox="0 0 28 12" fill="none" xmlns="http://www.w3.org/2000/svg">
<path d="M1 5.16846C0.585786 5.16846 0.25 5.50424 0.25 5.91846C0.25 6.33267 0.585786 6.66846 1 6.66846L1 5.16846ZM27.5303 6.44878C27.8232 6.15589 27.8232 5.68102 27.5303 5.38812L22.7574 0.615154C22.4645 0.322261 21.9896 0.322261 21.6967 0.615154C21.4038 0.908048 21.4038 1.38292 21.6967 1.67581L25.9393 5.91845L21.6967 10.1611C21.4038 10.454 21.4038 10.9289 21.6967 11.2218C21.9896 11.5146 22.4645 11.5146 22.7574 11.2218L27.5303 6.44878ZM1 6.66846L27 6.66845L27 5.16845L1 5.16846L1 6.66846Z" fill="#F8F9FA"/>
</svg>
