<svg width="123" height="61" viewBox="0 0 123 61" fill="none" xmlns="http://www.w3.org/2000/svg">
<path d="M89.2575 7.6277C91.9748 7.40126 94.4891 7.04598 97.0034 7.03817C98.4557 7.03426 100.131 7.23338 101.318 7.96737C103.008 9.0176 104.371 8.69355 106.01 8.12354C109.048 7.07331 112.187 6.57357 115.4 7.28413C119.261 8.13915 121.623 10.6183 122.26 14.5655C123.095 19.7737 121.854 24.8023 120.71 29.7957C118.793 38.1663 115.982 46.1895 110.438 52.9554C105.589 58.8742 99.506 61.7243 91.7171 60.5022C85.6266 59.5496 81.6911 55.1964 81.6326 49.0434C81.6248 48.3407 81.6326 47.6418 81.6326 46.5955C76.807 49.1762 72.2586 49.3245 67.8234 46.0138C67.4135 47.2045 67.0855 48.3055 66.6561 49.3597C64.704 54.1501 61.2722 57.4804 56.4076 59.1514C50.5474 61.166 44.5583 61.4197 38.5771 59.6745C31.2684 57.5429 27.9577 51.4874 30.6633 44.9909C30.7023 44.8972 30.6282 44.7527 30.5735 44.4638C27.5165 47.0835 24.0457 48.5359 20.0829 48.7233C13.1491 49.0512 7.75736 46.2051 4.13037 40.4151C-1.18715 31.9235 -0.886528 22.8853 2.2993 13.7612C3.70481 9.73597 6.08637 6.3237 9.75241 4.01242C14.5077 1.01399 19.4621 0.670424 24.5962 3.13397C25.213 3.43069 26.2203 3.45411 26.8216 3.15349C33.08 0.0379428 40.4277 1.45517 45.0268 6.882C45.917 7.93223 46.6705 8.33436 47.9862 7.80339C48.81 7.47153 49.7548 7.37002 50.6528 7.29194C53.4169 7.04598 56.0523 6.62823 58.629 5.31251C61.3776 3.91091 64.4697 3.7235 67.5579 4.59024C68.1045 4.7425 68.9166 4.40674 69.4515 4.05536C72.8091 1.86511 76.4009 0.580626 80.4769 0.881249C84.8613 1.21311 88.0237 3.12616 89.2575 7.6277ZM51.6366 44.374C51.7069 44.6004 51.7811 44.823 51.8514 45.0494C51.3438 45.3461 50.8714 45.8146 50.3287 45.9123C46.1356 46.6619 42.0323 46.4627 38.2101 44.3506C36.0745 43.1676 34.9384 43.3862 33.65 45.4945C32.5607 47.2787 32.1196 49.1996 32.7989 51.2805C34.0326 55.0559 37.1364 56.4809 40.5799 57.293C45.1518 58.3705 49.7548 58.1675 54.2876 56.9728C60.874 55.2394 64.8719 50.6754 65.4458 44.0343C65.7425 40.6221 65.0749 37.3621 62.7753 34.5198C59.078 36.8897 55.1114 37.4011 51.0198 37.2606C50.0476 37.2254 48.6929 37.3972 48.6851 35.5896C50.114 35.5896 51.4609 35.6247 52.804 35.5857C62.7363 35.285 68.9556 28.1482 67.4994 18.6258C67.2807 17.2008 67.2846 16.1349 68.2841 14.9129C69.7248 13.1482 69.6935 10.9775 68.5379 9.04102C67.3979 7.12796 65.4145 6.75707 63.3883 7.10454C61.4986 7.42859 58.9843 7.0655 59.121 10.1186C56.3217 10.1186 53.6395 9.87652 51.0159 10.1654C43.2973 11.0165 38.214 16.6386 38.3819 24.1971C38.4365 26.5787 39.2213 28.9446 39.7015 31.4902C39.7288 31.4745 39.4516 31.6385 39.1744 31.8025C36.8124 33.2041 35.3639 35.1913 35.5591 38.0219C35.7505 40.8134 37.48 42.7342 40.0138 43.3667C42.9303 44.0929 45.9951 44.2295 49.0052 44.5419C49.8758 44.6239 50.7621 44.4365 51.6366 44.374ZM86.9071 41.5044C83.4012 43.3199 82.2885 51.4523 86.8486 55.2277C90.417 58.1831 94.5984 58.5033 98.8462 57.4882C104.847 56.0515 108.564 51.7061 111.519 46.6384C115.295 40.1575 117.618 33.1221 118.82 25.7549C119.382 22.3192 119.73 18.7781 119.574 15.3112C119.425 11.9653 117.278 10.0873 113.94 9.98974C111.777 9.92727 109.575 10.4192 107.428 10.8448C105.772 11.1688 104.593 11.9379 105.429 14.0462C105.745 14.8427 105.694 15.8773 105.526 16.7518C104.683 21.1479 103.758 25.5323 102.817 29.9089C102.727 30.3306 102.321 30.682 102.059 31.0685C101.86 31.0138 101.657 30.9553 101.458 30.9006C101.521 30.1393 101.509 29.3624 101.657 28.6167C102.356 25.0443 103.199 21.4993 103.805 17.9114C104.636 12.9686 102.329 10.021 97.347 9.84138C95.102 9.75939 92.8298 10.2279 90.5888 10.5715C90.2062 10.63 89.7064 11.2781 89.6245 11.7232C88.7851 16.1896 87.9105 20.6521 87.278 25.1536C86.8291 28.359 86.4464 31.6229 86.5636 34.8439C86.7197 39.2127 89.0935 41.6606 93.4154 42.2774C95.1762 42.5273 97.019 42.2267 98.8227 42.1564C99.3537 42.1369 99.8847 42.0432 100.568 41.9651C99.1429 45.19 92.3886 44.823 86.9071 41.5044ZM24.4673 6.32761C23.3234 5.79663 22.4801 5.2969 21.5704 5.00799C15.9874 3.23548 10.0296 5.51553 6.71885 11.1141C2.06895 18.9811 1.45599 27.3868 4.78237 35.8668C7.31228 42.3126 13.0319 46.0567 19.2162 45.924C25.7401 45.7834 30.6789 42.1916 33.0761 35.285C34.1732 32.1304 34.6963 28.7416 35.1726 25.4152C35.93 20.1133 36.9373 14.991 41.2554 11.2586C41.9737 10.6378 42.7351 10.06 43.4651 9.47048C38.702 2.56786 28.4262 2.83335 23.7607 9.88823C21.2893 13.6206 20.2664 17.8294 19.8409 22.2177C19.7081 23.5763 19.7237 24.9467 19.5558 26.3015C19.5051 26.6997 19.0639 27.0511 18.8023 27.422C18.5525 27.0316 18.162 26.6646 18.084 26.2429C17.9668 25.6182 18.0371 24.9467 18.084 24.2986C18.5759 17.8567 19.7706 11.6568 24.4673 6.32761ZM70.6227 6.75707C72.4538 10.1069 72.1219 13.4411 71.345 16.7909C70.1542 21.921 68.8463 27.0237 67.7844 32.1773C67.1246 35.3787 67.0348 38.6504 68.2958 41.7855C69.4124 44.5653 71.5051 46.002 74.4879 45.9474C78.7278 45.8732 81.6248 43.4956 83.897 40.1887C84.1391 39.8373 84.0532 39.2322 84.0376 38.7441C83.9673 36.2337 83.5495 33.6882 83.858 31.2247C84.4358 26.5865 85.5094 22.0108 86.2044 17.3843C86.5909 14.827 86.8291 12.2112 86.7666 9.63056C86.6924 6.50329 84.8535 4.51606 81.8356 3.94604C77.7752 3.18082 74.1443 4.29352 70.6227 6.75707Z" fill="black"/>
<path d="M122.252 44.2488C122.022 45.6348 121.323 46.5211 119.792 46.4196C118.305 46.3181 117.825 45.3108 117.832 44.0029C117.84 42.5896 118.644 41.797 120.023 41.8087C121.534 41.8204 122.166 42.8043 122.252 44.2488ZM122.439 43.9873C121.334 43.2923 120.624 42.4959 120.03 42.57C119.394 42.652 118.863 43.5617 118.285 44.1083C118.89 44.7252 119.425 45.709 120.12 45.834C120.632 45.9237 121.346 44.9048 122.439 43.9873Z" fill="black"/>
<path d="M51.6917 25.337C52.1133 23.6504 52.5154 21.9599 53.0113 20.2967C53.0386 20.203 54.1435 20.1913 54.2606 20.4021C54.7369 21.2844 53.3353 24.8997 52.4022 25.4932C52.1641 25.4424 51.9259 25.3917 51.6917 25.337Z" fill="black"/>
</svg>
