<svg width="24" height="25" viewBox="0 0 24 25" fill="none" xmlns="http://www.w3.org/2000/svg">
<path d="M3 3.93652H21C21.2652 3.93652 21.5196 4.04188 21.7071 4.22942C21.8946 4.41695 22 4.67131 22 4.93652V20.9365C22 21.2017 21.8946 21.4561 21.7071 21.6436C21.5196 21.8312 21.2652 21.9365 21 21.9365H3C2.73478 21.9365 2.48043 21.8312 2.29289 21.6436C2.10536 21.4561 2 21.2017 2 20.9365V4.93652C2 4.67131 2.10536 4.41695 2.29289 4.22942C2.48043 4.04188 2.73478 3.93652 3 3.93652ZM12.06 12.6195L5.648 7.17452L4.353 8.69852L12.073 15.2535L19.654 8.69352L18.346 7.18052L12.061 12.6195H12.06Z" fill="#3CB4A5"/>
</svg>
