<svg width="24" height="25" viewBox="0 0 24 25" fill="none" xmlns="http://www.w3.org/2000/svg">
<path d="M15.3 6.52179C14.54 6.52167 13.8103 6.81992 13.2679 7.35236C12.7256 7.88481 12.4139 8.60889 12.4 9.36879L12.372 10.9438C12.3704 11.0284 12.3509 11.1116 12.3148 11.1881C12.2787 11.2646 12.2269 11.3326 12.1627 11.3877C12.0985 11.4427 12.0233 11.4836 11.9422 11.5076C11.8611 11.5315 11.7758 11.5381 11.692 11.5268L10.131 11.3148C8.07702 11.0348 6.10902 10.0888 4.22102 8.51579C3.62302 11.8258 4.79102 14.1188 7.60402 15.8878L9.35102 16.9858C9.43403 17.038 9.50299 17.1097 9.55187 17.1946C9.60075 17.2796 9.62806 17.3753 9.63141 17.4733C9.63477 17.5713 9.61407 17.6686 9.57111 17.7567C9.52816 17.8448 9.46426 17.9211 9.38502 17.9788L7.79302 19.1418C8.74002 19.2008 9.63902 19.1588 10.385 19.0108C15.103 18.0688 18.24 14.5188 18.24 8.66279C18.24 8.18479 17.228 6.52179 15.3 6.52179ZM10.4 9.33179C10.4175 8.36784 10.7189 7.43046 11.2666 6.63702C11.8142 5.84357 12.5838 5.22931 13.4789 4.87116C14.3741 4.51301 15.3549 4.42687 16.2988 4.62354C17.2426 4.82021 18.1074 5.29094 18.785 5.97679C19.496 5.97179 20.101 6.15179 21.454 5.33179C21.119 6.97179 20.954 7.68379 20.24 8.66279C20.24 16.3048 15.543 20.0208 10.777 20.9718C7.50902 21.6238 2.75702 20.5528 1.39502 19.1308C2.08902 19.0768 4.90902 18.7738 6.53902 17.5808C5.16002 16.6718 -0.32898 13.4418 3.27802 4.75779C4.97102 6.73479 6.68802 8.08079 8.42802 8.79479C9.58602 9.26979 9.87002 9.25979 10.401 9.33279L10.4 9.33179Z" fill="white"/>
</svg>
